<?xml version="1.0" encoding="UTF-8"?>
<svg id="Calque_2" data-name="Calque 2" xmlns="http://www.w3.org/2000/svg" viewBox="0 0 643.69 620.81">
  <defs>
    <style>
      .cls-1 {
        fill: #ce490e;
      }
    </style>
  </defs>
  <g id="Calque_1-2" data-name="Calque 1">
    <path class="cls-1" d="M643.53,275.53c-.61,4.14-3.12,7.03-6.38,8.59-4.18,2.01-7.98,5.24-12.05,7.53-13.05,7.33-27,12.49-39.87,20.25-3.1,1.9-6.16,3.92-9.07,6.15-.97.72-1.9,1.88-3.1,1.9-1.48.06-2.76-.26-4.25.24-1.04.33-1.99.45-3,.73-.9.22-1.62.46-2.46.98-.9.57-2.25,1.29-2.96,2.15-.36.44-.43,1-.74,1.44-.3.45-.7.68-.98,1.16-.44.79-.99,1.95-1.09,2.86-.11.67-.34,1.48.23,1.82.79.48,1.9.04,2.76.26,1.28.34,2.59,1.33,3.8,1.94,2.8,1.44,5.6,2.79,8.41,4.15,2.76,1.29,5.52,2.52,8.31,3.73,2.69,1.17,5.75,1.98,8.31,3.43,10.54,5.94,26.01,15.63,36.18,21.54,16.41,7.43-1.81,21.59-10.94,23.91-17.31,6-33.96-1.39-51.53-.66-2.04.07-5.54.69-6.39,2.78-1.26,4.23,3.35,7.39,6.04,10.12,16.58,12.17,48.98,41.57,23.25,62.78-8.37,6.71-15.93-.31-22.75-6.16-12.55-9.09-26.25-20.25-40-25.49-16.49-5.87-18.82-1.32-9.05,16.92,3.1,6.86,4.69,14.52,6.65,21.85,5.57,19.13,17.43,45.69,15.61,66.39-.42,6.99-5.31,16.99-11.94,13.91-4.96-2.53-9-11.3-13.15-16.81-4.48-7.07-11.92-10.95-17.34-15.92-4.17-3.59-25.79-29.03-29.43-18.71-3.25,29.35,15.61,61.56,4.8,89.42-3.74,7.42-12.95,10.61-18.74,5.83-10.45-11.28-14.22-34.57-24.65-45.16-2.36-2.56-7.19-2.36-8.89-3.92-5.71-5.72-9.1-13.97-13.31-22.28-1.29-2.23-3.23-5.9-5.32-3.36-2.38,3.58-5.59,11.9-8.7,16.24-12.19,17.96-15.42,42.74-13.11,65.11.72,6.84-2.12,14.96-8.71,10.81-3.75-2.2-6.66-6.24-9.91-9.34-5-5.28-11.47-8.26-15.44-14.34-6.2-12.43-10.16-25.71-11.7-39.9-2.03-9.17-8.22-21.33-14.17-7.98-10.55,19.81-20.9,36.18-31.22,57.48-4.31,9.35-19.04,34.83-21.53,11.11-.87-36.42-5.16-73.97-.3-110.74.08-2.65.83-7.78-1.93-7.47-29.73,20.94-42.78,60.01-64.32,91.62-2.31,3.29-5.03,7.11-7.93,9.2-15.71,8.08.35-28.17.48-35.3,4.21-25.41,3.03-56.51,1.66-83.02.05-10.97-5.89-8.1-11.31-3.12-18.22,16.76-30.11,40.79-43.73,62.7-3.58,5.4-7.5,12.39-12.77,15.23-5.87,2.64-7.66-6.09-7.89-11.45-.51-33.02,18.71-62.5,24.56-94.49,2.05-9.62,5.29-21.54,6.52-30.67.18-2.52-.3-4.18-1.75-4.75-6.07-.77-13.83,5.02-19.91,7.06-1.04.35-2.06.84-3.09,1.26-13.13,5.27-26.52,9.84-39.28,16.21-6.42,3.2-12.58,6.9-18.47,11.18-4.24,3.09-11.2,6.74-16.32,6.13-1.91-.23-4.36-.64-5.76-2.34-1.54-1.86-.51-3.54.3-5.67,1.82-4.81,4.65-8.58,7.22-12.88.77-1.29,1.07-2.81,1.86-4.08.91-1.46,2.15-2.75,3.17-4.13,1.9-2.59,3.91-5.11,6.07-7.45,1.1-1.19,2.56-2.08,3.47-3.46.36-.55.54-1.54.89-1.98,2.03-2.53,5.55-3.9,7.79-6.4,8.97-12.68,19.36-25.69,30.77-35.13,17.67-13.64,6.03-12.75-6.61-12.29-22.37-.73-43.02-9.69-64.67-2.39-9.53,2.61-18.72,12.14-28.47,11.48-3.75-.63-5.43-3.9-3.37-7.8,1.98-3.91,6.06-6.93,9.64-9.38,9.92-6.67,18.39-12.38,26.79-17.49,8.65-5.27,18.16-8.91,27.15-13.36,4.66-2.33,9.28-4.75,13.76-7.51,4.09-2.52,7.68-6.42,12.13-7.85,2.26-.76,4.68-1.86,6.99-2.28,2.72-.54,19.25-2.3,19.07-5.98-2.6-.57-4.92-2-7.33-2.64-4.08-1.1-7.88-3.13-11.85-4.61-2-.73-4.02-1.22-6.13-1.57-1.9-.33-3.36-1.07-5.2-1.9-4.18-1.91-8.86-3.21-12.88-5.46-10.54-5.91-26.02-15.6-36.18-21.51-16.41-7.43,1.81-21.62,10.94-23.93,17.31-6,33.96,1.42,51.53.66,2.07-.06,5.54-.66,6.39-2.78,1.26-4.2-3.35-7.36-6.04-10.12-16.58-12.14-48.98-41.54-23.25-62.78,8.37-6.68,15.93.34,22.75,6.16,12.55,9.12,26.25,20.28,40,25.52,16.49,5.85,18.82,1.32,9.05-16.92-3.1-6.86-4.69-14.55-6.66-21.85-5.56-19.16-17.43-45.72-15.61-66.39.42-6.99,5.31-17,11.94-13.94,4.96,2.53,9,11.3,13.15,16.84,4.5,7.07,11.92,10.95,17.34,15.92,4.17,3.59,25.79,29,29.45,18.72,3.23-29.38-15.64-61.56-4.82-89.43,3.75-7.45,12.98-10.64,18.77-5.85,10.42,11.3,14.2,34.6,24.62,45.16,2.36,2.55,7.22,2.4,8.91,3.95,5.68,5.72,9.08,13.94,13.29,22.25,1.29,2.23,3.23,5.93,5.32,3.36,2.38-3.58,5.61-11.87,8.7-16.24,12.19-17.96,15.41-42.71,13.11-65.08-.69-6.87,2.12-14.99,8.71-10.81,3.76,2.17,6.66,6.24,9.91,9.34,5.02,5.28,11.47,8.23,15.44,14.31,6.2,12.46,10.16,25.74,11.69,39.93,2.06,9.14,8.23,21.3,14.17,7.95,10.55-19.81,20.9-36.18,31.22-57.48,4.31-9.35,19.07-34.83,21.53-11.11.9,36.45,5.16,74,.3,110.74-.08,2.65-.83,7.78,1.93,7.47,29.73-20.91,42.78-60.01,64.32-91.59,2.31-3.32,5.03-7.11,7.94-9.23,15.71-8.08-.32,28.18-.48,35.3-4.22,25.44-3.04,56.54-1.64,83.02-.08,10.97,5.86,8.1,11.28,3.14,18.22-16.76,30.11-40.82,43.73-62.7,3.61-5.42,7.5-12.42,12.77-15.23,5.9-2.67,7.69,6.06,7.89,11.45.51,32.99-18.71,62.5-24.56,94.46-2.06,9.65-5.29,21.54-6.5,30.7-.21,2.49.27,4.18,1.73,4.72,6.09.8,13.82-4.99,19.93-7.03,8.86-2.96,18.09-9.01,27.21-9.85,3.1-.28,5.9-.49,8.88-1.57,5.85-2.11,11.06-5.93,16.26-9.48,8.51-5.82,15.82-12.62,25.18-16.74,1.36-.59,3.3-2,5.03-.91,2.04,1.29,1.33,4.3.72,6.85-2.85,11.53-15.08,16.69-19.59,27.2-.79,1.85-3.62,5.54-2.61,7.01.79,1.39,3.97.86,2.76,1.88-3.34,2.82-8.06,5.18-11.68,9.21-9,12.68-19.39,25.69-30.79,35.13-17.67,13.67-6.03,12.75,6.61,12.29,9.9.35,19.64,2.33,29.43,3.79,4.34.65,8.57,1.27,12.89.83,4.19-.45,8.79.58,12.96.92,2.61.22,5.21.43,7.82.67,2.95.27,5.72-.53,8.65-.35,1.62.1,4.19-.19,5.69.44.46.22.77.42.96.64.41.54.27,1.23.11,2.52Z"/>
  </g>
</svg>