<svg width="32" height="32" viewBox="0 0 32 32" fill="none" xmlns="http://www.w3.org/2000/svg">
<rect width="32" height="32" rx="4" fill="#BF5226"/>
<g clip-path="url(#clip0_136_288)">
<path d="M26.8458 4.22048C26.9749 4.545 26.8287 4.81046 26.8463 5.14492C26.8983 5.13615 26.9474 4.9929 26.9999 5.07534C26.8625 6.04189 26.6305 6.99966 26.5751 7.98667C26.5599 8.25622 26.6555 8.31645 26.655 8.3527C26.6501 8.78072 26.4863 9.29937 26.4583 9.74259C26.4353 10.1098 26.4745 10.5039 26.4574 10.874L26.3421 10.7354L26.346 10.9635L26.4534 10.9693C26.4961 11.0208 26.3504 11.9359 26.3421 12.099C26.3235 12.4586 26.3239 12.8223 26.3048 13.1638C26.1945 15.1226 26.1645 17.0767 26.0625 19.0285C26.0355 19.5402 25.8516 20.267 26.1101 20.6494L25.9546 22.2392L26.1081 22.2615C25.8663 23.4952 26.0498 24.7962 25.7569 26.023L25.6053 26.0277L25.6426 26.1832C25.6147 26.3031 25.1595 26.2598 25.0442 26.2574C24.8156 26.2539 24.5316 26.1937 24.3075 26.1914C23.8194 26.1861 23.3157 26.268 22.8354 26.2107C22.7628 26.289 22.9075 26.2171 22.8928 26.3036L20.9558 26.5346L20.8587 22.6544C20.8126 22.6982 20.7925 22.7614 20.7665 22.8216C20.376 23.7402 20.2156 24.7828 19.9282 25.7493C19.8894 25.8791 19.8183 26.0294 19.7585 26.1493L19.8664 26.2639L19.8698 26.534C19.8458 26.5615 19.5588 26.2966 19.5407 26.5323L19.601 26.7352L19.4622 26.8585L19.4244 26.765H19.3464L19.3097 26.8585C19.1218 26.6638 19.0624 26.9018 18.9511 26.941C18.9236 26.9503 18.4115 27.0024 18.3836 26.9989C18.3708 26.9971 18.3095 26.8369 18.1795 26.8258C18.1113 26.8199 18.0348 26.8696 17.9514 26.8626C17.6071 26.8334 17.3246 26.8264 17.0151 26.6732C16.6957 26.5153 16.2219 26.5252 15.879 26.4656L15.5867 25.844C15.3267 23.4578 15.0839 20.9529 15.1413 18.5169C15.1982 16.1032 15.9006 13.9268 16.8414 11.8119C16.9998 11.4552 17.2181 11.1073 17.3721 10.7349C17.562 10.2753 17.6738 9.71803 17.8739 9.29995C18.1967 8.62577 18.6278 7.99778 18.8432 7.22127C19.086 6.34536 18.9791 5.66065 19.0605 4.80111C19.0693 4.70872 19.1046 4.62628 19.1345 4.54325L19.0188 4.58885C18.9952 4.40818 19.1576 4.32398 19.2812 4.27895C19.5117 4.19534 20.1725 4.09944 20.431 4.07898C22.0585 3.95268 23.762 4.04682 25.3939 4.00121C25.906 3.98659 26.2455 4.14096 26.7203 4.25849C26.7639 4.26901 26.8076 4.24211 26.8458 4.22048ZM26.5555 4.54442V4.59061C26.5805 4.57541 26.5805 4.55962 26.5555 4.54442ZM26.6717 4.54442V4.59061C26.6967 4.57541 26.6967 4.55962 26.6717 4.54442ZM20.9553 23.2087C20.9852 23.1333 20.9033 22.8684 20.8788 22.9321L20.9175 23.2087H20.9553ZM21.2658 26.1656L21.3418 26.0966L21.3036 25.9809H21.2658V26.1651V26.1656ZM25.548 25.9809V26.0271C25.573 26.0119 25.573 25.9961 25.548 25.9809Z" fill="#F4F3DA"/>
<path d="M10.3756 26.7204L9.7943 26.8128L9.83256 26.6748L9.71827 26.7099L9.69718 26.7672L9.65745 26.6718L9.50294 26.766V26.6742C9.34156 26.7976 9.01782 26.7017 8.99918 26.9519H8.94228C8.93885 26.8917 8.92511 26.8496 8.87704 26.8221C8.58715 26.6543 7.42906 26.7198 7.02586 26.7145C6.57852 26.7087 6.1243 26.7467 5.66617 26.7631C5.51509 26.7683 5.35175 26.849 5.20264 26.8122C5.08933 26.7841 5.05892 26.6262 4.97504 26.5537C4.85732 26.452 4.70771 26.5344 4.75578 26.2123L4.64002 26.2585L4.6773 26.1421L4.59882 26.1409C4.54143 26.0509 4.538 25.8971 4.51347 25.8199C4.50366 25.7883 4.39526 25.8065 4.48306 25.6807L4.36828 25.7047L4.40654 25.4743L4.34915 25.5667L4.2535 25.5182L4.2898 25.1978C4.17894 25.2258 4.15785 25.1522 4.13774 25.0317C4.11321 24.8879 4.2329 25.0902 4.21328 24.9428L4.13382 24.8902L4.17011 24.6622C3.98666 24.0424 4.0882 23.0565 4.15 22.3484C4.18532 21.942 4.21279 21.5362 4.32659 21.1503L4.25252 21.1082C4.45657 20.4709 4.6204 19.6634 4.71213 18.9763C4.74303 18.746 4.70134 18.4676 4.79404 18.2893L4.71752 18.3133L4.61206 17.2187C4.73273 16.9807 4.61697 17.1064 4.60078 17.0356C4.57331 16.917 4.62187 16.6807 4.59735 16.4954C4.49238 15.7113 4.1191 14.9049 4.02394 14.0805C3.90082 13.0104 4.27754 10.8505 4.58361 9.81376C4.88184 8.80395 5.35077 7.81226 5.56659 6.7814C5.65881 6.34169 5.50871 5.75404 5.96047 5.49559C6.3573 5.26872 6.49219 5.52366 6.85958 5.45817C6.91157 5.44882 6.96406 5.38391 7.02684 5.37397C7.08963 5.36403 7.07001 5.47805 7.19116 5.48858C7.38933 5.50612 8.07212 5.49326 8.24772 5.44005C8.31786 5.419 8.39536 5.34883 8.46845 5.31959C8.55576 4.9787 8.72793 4.50859 9.04823 4.41445C9.09238 4.40158 9.15713 4.45479 9.16939 4.44485C9.18312 4.43374 9.18165 4.34369 9.23659 4.31972C9.31998 4.28405 9.4735 4.33025 9.57798 4.30978C10.019 4.22441 10.4452 4.14489 10.897 4.12676C11.051 4.12092 11.4395 4.08817 11.5523 4.09694C11.6352 4.10396 11.9839 4.18348 12.0678 4.21272C12.3754 4.32089 12.4166 4.91438 12.448 5.23773C12.4681 5.28685 12.7943 5.44531 12.8428 5.45349C13.1597 5.50554 14.3874 5.1126 14.747 4.97402C15.1065 4.83544 15.2787 4.66646 15.6701 4.59629C16.1994 4.50098 17.3707 4.37352 17.8411 4.58226C17.9073 4.6115 17.8897 4.69511 17.9127 4.68283L18.0869 4.54425C18.1354 4.77814 18.209 4.93836 18.1202 5.18335L18.0491 5.1664L18.0903 5.30147L18.0098 5.3307C18.1477 5.48682 18.0295 5.702 18.028 5.85871C18.0226 6.38846 18.0633 6.96792 18.0452 7.47312C18.0383 7.66316 17.9632 8.02451 17.9314 8.21689L16.7875 9.02439C16.3774 9.65238 15.6166 9.99034 15.1821 10.5774C14.9559 10.8826 14.6376 11.9375 14.5012 12.3509C14.231 13.1701 14.1098 13.7098 13.9577 14.5295C13.8974 14.8546 13.7944 15.6224 13.7061 15.8756C13.6929 15.9142 13.6595 15.9147 13.6306 15.9095L13.7076 15.9779C13.6826 16.0048 13.6477 16.0381 13.6428 16.0779C13.6046 16.3843 13.6247 16.7643 13.5742 17.0666C13.4736 17.6648 13.196 18.0677 13.0675 18.5875C12.8673 19.3979 12.7481 20.5317 12.8114 21.3427C12.8301 21.5801 12.9767 22.725 12.9341 22.8063C12.9174 22.8384 12.8575 22.8367 12.859 22.8589L12.9002 23.0138L12.9703 22.9992C12.8492 23.26 13.0086 23.5483 13.0469 23.7886C13.1175 24.2365 13.2146 25.0259 13.3951 25.3948C13.4197 25.4445 13.5133 25.4615 13.5335 25.5153C13.5477 25.5521 13.556 26.0982 13.5717 26.1889C13.5908 26.2988 13.7228 26.3731 13.7066 26.5081C13.6943 26.5578 13.5232 26.6344 13.4746 26.6508C13.3412 26.6958 13.0292 26.728 12.8943 26.6999C12.8129 26.683 12.5436 26.5456 12.5245 26.5467C12.4911 26.5485 12.4548 26.652 12.4018 26.6672C12.3871 26.6713 12.1188 26.6783 12.1036 26.6765C12.0737 26.673 12.0977 26.545 11.983 26.5806C11.9687 26.5853 11.9677 26.6666 11.9378 26.6742C11.7298 26.7262 11.4463 26.6502 11.2467 26.6473C11.1167 26.6455 11.0196 26.8835 10.975 26.673L10.9171 26.6742L10.9156 26.7648C10.7876 26.6631 10.5619 26.6882 10.4128 26.7198C10.4069 26.721 10.3986 26.6298 10.3741 26.7198L10.3756 26.7204ZM9.03842 4.49806V4.54425C9.06344 4.52905 9.06344 4.51326 9.03842 4.49806ZM8.90255 4.63722C8.82897 4.61851 8.79758 4.6957 8.74853 4.753C8.78924 4.78165 8.92511 4.65827 8.90255 4.63722ZM17.5257 8.33325L17.4678 8.40224L17.486 8.42388C17.5076 8.39464 17.564 8.36365 17.5257 8.33325ZM16.944 8.60982V8.65601C16.969 8.64081 16.969 8.62502 16.944 8.60982ZM14.1927 12.2596V12.3058C14.2177 12.2906 14.2177 12.2749 14.1927 12.2596ZM14.1731 12.3988C14.0475 12.3631 14.0966 12.597 14.0573 12.6754C14.1358 12.6502 14.124 12.4707 14.1731 12.3988ZM14.0563 12.952C14.0652 12.9414 14.0995 12.804 14.0951 12.7678C14.0205 12.7906 14.0078 12.8701 14.0186 12.9525C14.0313 12.9502 14.0509 12.959 14.0563 12.9525V12.952ZM5.24041 13.1835V13.2297C5.26542 13.2145 5.26542 13.1987 5.24041 13.1835ZM4.6979 16.9257V16.9719C4.72292 16.9567 4.72292 16.9409 4.6979 16.9257ZM4.64002 23.9026L4.52377 23.9248L4.58165 23.9932L4.63953 23.902L4.64002 23.9026ZM4.19415 24.7797V24.8259C4.21916 24.8107 4.21916 24.7949 4.19415 24.7797ZM4.91127 25.8889H4.83377V25.9807L4.91078 25.8889H4.91127ZM10.5884 26.4894V26.5356C10.6135 26.5204 10.6135 26.5046 10.5884 26.4894ZM10.7626 26.5812V26.4894H10.7248V26.5812H10.7626ZM12.2356 26.5356H12.1586V26.5806H12.2356V26.5356ZM10.2397 26.6742V26.7204C10.2647 26.7052 10.2647 26.6894 10.2397 26.6742Z" fill="#F4F3DA"/>
</g>
<defs>
<clipPath id="clip0_136_288">
<rect width="23" height="23" fill="white" transform="translate(4 4)"/>
</clipPath>
</defs>
</svg>
