<svg width="180" height="180" viewBox="0 0 180 180" fill="none" xmlns="http://www.w3.org/2000/svg">
<rect width="180" height="180" rx="4" fill="#BF5226"/>
<g clip-path="url(#clip0_136_288)">
<path d="M151.006 23.7403C151.732 25.5657 150.909 27.059 151.009 28.9403C151.301 28.891 151.577 28.0851 151.872 28.5489C151.1 33.9857 149.795 39.3732 149.483 44.9251C149.397 46.4414 149.935 46.7801 149.933 46.984C149.905 49.3916 148.984 52.309 148.826 54.8021C148.697 56.8677 148.917 59.0845 148.821 61.1665L148.172 60.3869L148.194 61.6697L148.799 61.7026C149.039 61.992 148.219 67.1394 148.172 68.057C148.067 70.0798 148.07 72.1256 147.963 74.0464C147.342 85.0647 147.174 96.0568 146.6 107.036C146.448 109.914 145.413 114.002 146.867 116.153L145.993 125.096L146.856 125.221C145.496 132.161 146.528 139.479 144.881 146.379L144.028 146.406L144.238 147.281C144.081 147.955 141.52 147.711 140.872 147.698C139.586 147.678 137.988 147.34 136.728 147.327C133.982 147.297 131.149 147.757 128.447 147.435C128.039 147.876 128.853 147.471 128.77 147.958L117.874 149.257L117.328 127.431C117.069 127.678 116.956 128.033 116.809 128.372C114.613 133.539 113.711 139.403 112.094 144.84C111.876 145.57 111.476 146.415 111.139 147.09L111.746 147.734L111.766 149.254C111.631 149.409 110.017 147.919 109.914 149.244L110.254 150.385L109.473 151.079L109.261 150.553H108.822L108.615 151.079C107.558 149.984 107.224 151.323 106.598 151.543C106.443 151.596 103.563 151.888 103.406 151.869C103.334 151.859 102.989 150.958 102.258 150.895C101.874 150.862 101.444 151.142 100.975 151.102C99.038 150.938 97.4487 150.898 95.7077 150.037C93.9115 149.149 91.2462 149.205 89.3176 148.869L87.6732 145.373C86.2108 131.95 84.8451 117.86 85.1679 104.158C85.488 90.5805 89.439 78.3386 94.731 66.4421C95.6222 64.4358 96.85 62.4788 97.7164 60.3837C98.7841 57.7985 99.4132 54.664 100.539 52.3123C102.354 48.52 104.78 44.9876 105.991 40.6197C107.357 35.6927 106.755 31.8412 107.213 27.0063C107.263 26.4867 107.462 26.0229 107.63 25.5559L106.979 25.8124C106.846 24.7961 107.76 24.3225 108.455 24.0692C109.752 23.5989 113.468 23.0595 114.922 22.9443C124.077 22.2339 133.659 22.7634 142.839 22.5069C145.719 22.4247 147.629 23.293 150.3 23.9541C150.545 24.0133 150.791 23.862 151.006 23.7403ZM149.373 25.5624V25.8223C149.513 25.7367 149.513 25.6479 149.373 25.5624ZM150.026 25.5624V25.8223C150.167 25.7367 150.167 25.6479 150.026 25.5624ZM117.872 130.549C118.04 130.125 117.579 128.635 117.441 128.993L117.659 130.549H117.872ZM119.618 147.182L120.046 146.794L119.831 146.143H119.618V147.179V147.182ZM143.705 146.143V146.402C143.846 146.317 143.846 146.228 143.705 146.143Z" fill="#F4F3DA"/>
<path d="M58.3635 150.303L55.0939 150.822L55.3091 150.046L54.6662 150.244L54.5476 150.566L54.3241 150.03L53.455 150.559V150.043C52.5472 150.737 50.7262 150.198 50.6214 151.605H50.3013C50.282 151.266 50.2047 151.03 49.9344 150.875C48.3037 149.931 41.7894 150.299 39.5214 150.27C37.0051 150.237 34.4502 150.451 31.8732 150.543C31.0234 150.572 30.1046 151.026 29.2658 150.819C28.6285 150.661 28.4574 149.773 27.9856 149.365C27.3234 148.793 26.4819 149.257 26.7523 147.445L26.1011 147.704L26.3108 147.05L25.8693 147.043C25.5465 146.537 25.5272 145.672 25.3892 145.238C25.3341 145.06 24.7243 145.162 25.2182 144.455L24.5725 144.59L24.7878 143.294L24.4649 143.813L23.9269 143.54L24.1311 141.738C23.5075 141.896 23.3889 141.482 23.2758 140.804C23.1378 139.995 23.811 141.133 23.7007 140.304L23.2537 140.008L23.4579 138.725C22.426 135.239 22.9971 129.694 23.3447 125.711C23.5434 123.425 23.6979 121.142 24.338 118.971L23.9214 118.734C25.0692 115.149 25.9907 110.607 26.5067 106.743C26.6805 105.447 26.446 103.881 26.9675 102.878L26.537 103.013L25.9438 96.8556C26.6226 95.517 25.9714 96.2241 25.8804 95.8262C25.7259 95.1585 25.999 93.8297 25.8611 92.7871C25.2706 88.3765 23.1709 83.8408 22.6356 79.2033C21.9431 73.1843 24.0621 61.0345 25.7838 55.203C27.4613 49.5228 30.0991 43.9446 31.3131 38.146C31.8318 35.6726 30.9875 32.3671 33.5286 30.9134C35.7608 29.6372 36.5195 31.0712 38.5861 30.7029C38.8786 30.6502 39.1738 30.2852 39.527 30.2292C39.8801 30.1733 39.7698 30.8147 40.4513 30.8739C41.566 30.9726 45.4066 30.9002 46.3944 30.6009C46.789 30.4825 47.2249 30.0878 47.636 29.9234C48.1271 28.0058 49.0956 25.3614 50.8973 24.8319C51.1456 24.7595 51.5098 25.0588 51.5788 25.0029C51.656 24.9404 51.6478 24.4339 51.9568 24.2991C52.4258 24.0984 53.2894 24.3583 53.8771 24.2432C56.3576 23.763 58.7553 23.3156 61.2964 23.2137C62.1628 23.1808 64.348 22.9966 64.9826 23.0459C65.4489 23.0854 67.4106 23.5327 67.8824 23.6972C69.6124 24.3056 69.8441 27.644 70.0207 29.4629C70.1339 29.7392 71.9687 30.6305 72.2418 30.6765C74.0242 30.9693 80.9303 28.759 82.9527 27.9795C84.9751 27.2 85.9436 26.2495 88.1454 25.8548C91.1225 25.3187 97.7112 24.6017 100.357 25.7759C100.73 25.9403 100.63 26.4106 100.76 26.3416L101.74 25.5621C102.013 26.8777 102.427 27.7789 101.927 29.157L101.527 29.0616L101.759 29.8214L101.306 29.9858C102.082 30.864 101.417 32.0744 101.408 32.9559C101.378 35.9357 101.607 39.1952 101.505 42.0369C101.466 43.1059 101.044 45.1385 100.865 46.2206L94.4306 50.7628C92.124 54.2953 87.8446 56.1963 85.4 59.4985C84.1281 61.2154 82.3374 67.1489 81.5704 69.4743C80.0501 74.0822 79.3686 77.118 78.5133 81.7293C78.1739 83.558 77.5945 87.8765 77.0979 89.3007C77.0234 89.5178 76.8357 89.521 76.673 89.4914L77.1061 89.8763C76.9654 90.0276 76.7695 90.215 76.7419 90.4387C76.5267 92.1622 76.6399 94.3 76.3557 96.0005C75.79 99.3652 74.2284 101.631 73.5055 104.555C72.3798 109.114 71.7093 115.491 72.0652 120.053C72.1701 121.389 72.9951 127.829 72.755 128.286C72.6612 128.467 72.3246 128.457 72.3329 128.582L72.5646 129.453L72.9592 129.371C72.2777 130.838 73.1744 132.46 73.3896 133.811C73.7869 136.331 74.3332 140.771 75.3486 142.846C75.4865 143.126 76.0135 143.221 76.1267 143.524C76.2067 143.731 76.2536 146.803 76.3419 147.313C76.4495 147.931 77.1917 148.349 77.1006 149.109C77.0316 149.388 76.0687 149.819 75.7956 149.911C75.0451 150.165 73.2903 150.346 72.5315 150.188C72.0735 150.092 70.5588 149.319 70.4512 149.326C70.2635 149.336 70.0594 149.918 69.7614 150.003C69.6786 150.027 68.1694 150.066 68.0838 150.056C67.9155 150.036 68.0507 149.316 67.4051 149.517C67.3251 149.543 67.3196 150 67.1512 150.043C65.9814 150.336 64.3866 149.908 63.2637 149.892C62.5325 149.882 61.9862 151.22 61.7351 150.036L61.4095 150.043L61.4012 150.553C60.6811 149.98 59.4119 150.122 58.5732 150.299C58.54 150.306 58.4931 149.793 58.3552 150.299L58.3635 150.303ZM50.8421 25.3022V25.5621C50.9828 25.4766 50.9828 25.3877 50.8421 25.3022ZM50.0778 26.085C49.664 25.9798 49.4874 26.4139 49.2115 26.7363C49.4405 26.8974 50.2047 26.2034 50.0778 26.085ZM98.5831 46.8751L98.2575 47.2633L98.3596 47.385C98.481 47.2205 98.7983 47.0462 98.5831 46.8751ZM95.3108 48.4309V48.6907C95.4515 48.6052 95.4515 48.5164 95.3108 48.4309ZM79.8349 68.9612V69.221C79.9756 69.1355 79.9756 69.0467 79.8349 68.9612ZM79.7245 69.744C79.0182 69.5433 79.2941 70.8589 79.0734 71.2997C79.5149 71.1582 79.4486 70.1485 79.7245 69.744ZM79.0679 72.8554C79.1175 72.7962 79.3107 72.0233 79.2858 71.8193C78.8665 71.9476 78.7947 72.3949 78.8554 72.8587C78.9272 72.8455 79.0375 72.8949 79.0679 72.8587V72.8554ZM29.4783 74.1579V74.4177C29.619 74.3322 29.619 74.2434 29.4783 74.1579ZM26.4267 95.2078V95.4677C26.5674 95.3821 26.5674 95.2933 26.4267 95.2078ZM26.1011 134.453L25.4472 134.578L25.7728 134.963L26.0983 134.45L26.1011 134.453ZM23.5931 139.386V139.646C23.7338 139.561 23.7338 139.472 23.5931 139.386ZM27.6269 145.626H27.191V146.142L27.6241 145.626H27.6269ZM59.5609 149.004V149.263C59.7016 149.178 59.7016 149.089 59.5609 149.004ZM60.5404 149.52V149.004H60.328V149.52H60.5404ZM68.826 149.263H68.3929V149.517H68.826V149.263ZM57.5992 150.043V150.303C57.7399 150.217 57.7399 150.128 57.5992 150.043Z" fill="#F4F3DA"/>
</g>
<defs>
<clipPath id="clip0_136_288">
<rect width="129.375" height="129.375" fill="white" transform="translate(22.5 22.5)"/>
</clipPath>
</defs>
</svg>
