<svg width="192" height="192" viewBox="0 0 192 192" fill="none" xmlns="http://www.w3.org/2000/svg">
<rect width="192" height="192" rx="4" fill="#BF5226"/>
<g clip-path="url(#clip0_136_288)">
<path d="M161.073 25.3229C161.847 27.27 160.97 28.8628 161.076 30.8695C161.388 30.8169 161.682 29.9574 161.997 30.4521C161.173 36.2513 159.781 41.998 159.449 47.92C159.357 49.5373 159.931 49.8987 159.928 50.1162C159.899 52.6843 158.916 55.7962 158.748 58.4555C158.61 60.6587 158.845 63.0233 158.742 65.2441L158.051 64.4126L158.074 65.7809L158.719 65.816C158.975 66.1247 158.101 71.6152 158.051 72.5941C157.939 74.7517 157.942 76.9339 157.827 78.9827C157.165 90.7356 156.985 102.46 156.373 114.171C156.211 117.241 155.108 121.602 156.659 123.896L155.726 133.435L156.647 133.569C155.196 140.971 156.297 148.777 154.54 156.138L153.63 156.166L153.854 157.099C153.686 157.818 150.955 157.559 150.263 157.545C148.892 157.524 147.188 157.162 145.843 157.148C142.914 157.117 139.892 157.608 137.011 157.264C136.575 157.734 137.443 157.303 137.355 157.822L125.733 159.208L125.15 135.926C124.874 136.189 124.753 136.568 124.597 136.93C122.254 142.441 121.292 148.697 119.567 154.496C119.335 155.275 118.908 156.176 118.549 156.896L119.196 157.583L119.217 159.204C119.073 159.369 117.351 157.78 117.242 159.194L117.604 160.411L116.771 161.151L116.545 160.59H116.077L115.856 161.151C114.729 159.983 114.373 161.411 113.705 161.646C113.54 161.702 110.467 162.014 110.3 161.993C110.223 161.983 109.855 161.021 109.075 160.955C108.666 160.92 108.207 161.218 107.707 161.176C105.641 161 103.945 160.958 102.088 160.039C100.172 159.092 97.3294 159.151 95.2722 158.794L93.5182 155.064C91.9584 140.747 90.5015 125.717 90.8459 111.101C91.1873 96.6191 95.4017 83.5611 101.047 70.8715C101.997 68.7314 103.307 66.6439 104.231 64.4091C105.37 61.6516 106.041 58.3082 107.242 55.7997C109.178 51.7546 111.765 47.9867 113.057 43.3276C114.514 38.0721 113.872 33.9639 114.361 28.8066C114.414 28.2523 114.626 27.7577 114.805 27.2595L114.111 27.5331C113.969 26.4491 114.944 25.9439 115.685 25.6737C117.069 25.172 121.033 24.5967 122.584 24.4739C132.349 23.7161 142.57 24.2809 152.362 24.0073C155.434 23.9196 157.471 24.8457 160.32 25.5509C160.582 25.6141 160.844 25.4527 161.073 25.3229ZM159.331 27.2665V27.5437C159.481 27.4524 159.481 27.3577 159.331 27.2665ZM160.028 27.2665V27.5437C160.178 27.4524 160.178 27.3577 160.028 27.2665ZM125.73 139.252C125.909 138.8 125.418 137.21 125.271 137.593L125.503 139.252H125.73ZM127.593 156.994L128.049 156.58L127.82 155.885H127.593V156.99V156.994ZM153.286 155.885V156.162C153.436 156.071 153.436 155.976 153.286 155.885Z" fill="#F4F3DA"/>
<path d="M62.2543 160.323L58.7668 160.877L58.9963 160.049L58.3106 160.26L58.184 160.604L57.9457 160.032L57.0186 160.597V160.046C56.0503 160.786 54.1079 160.211 53.9961 161.712H53.6547C53.6341 161.351 53.5517 161.098 53.2632 160.933C51.5239 159.927 44.5753 160.32 42.1561 160.288C39.4721 160.253 36.7468 160.481 33.998 160.579C33.0915 160.611 32.1115 161.095 31.2168 160.874C30.537 160.705 30.3545 159.758 29.8512 159.323C29.1449 158.713 28.2473 159.207 28.5357 157.274L27.8411 157.551L28.0648 156.853L27.5939 156.846C27.2496 156.306 27.229 155.383 27.0818 154.92C27.0229 154.731 26.3725 154.84 26.8993 154.085L26.2107 154.229L26.4402 152.847L26.0959 153.401L25.522 153.11L25.7398 151.187C25.0746 151.356 24.9481 150.914 24.8274 150.191C24.6803 149.328 25.3984 150.542 25.2806 149.658L24.8039 149.342L25.0217 147.974C23.921 144.255 24.5302 138.34 24.901 134.091C25.1129 131.653 25.2777 129.218 25.9605 126.903L25.5161 126.65C26.7404 122.826 27.7234 117.981 28.2737 113.859C28.4592 112.476 28.209 110.807 28.7652 109.736L28.3061 109.88L27.6734 103.313C28.3973 101.885 27.7028 102.639 27.6057 102.215C27.4409 101.502 27.7322 100.085 27.5851 98.9729C26.9552 94.2683 24.7156 89.4303 24.1446 84.4835C23.4059 78.0633 25.6662 65.1036 27.5027 58.8833C29.292 52.8244 32.1056 46.8743 33.4005 40.6891C33.9538 38.0509 33.0533 34.525 35.7638 32.9743C38.1448 31.6131 38.9541 33.1427 41.1584 32.7498C41.4704 32.6936 41.7853 32.3042 42.162 32.2446C42.5387 32.1849 42.421 32.8691 43.148 32.9322C44.3369 33.0375 48.4337 32.9603 49.4873 32.641C49.9082 32.5147 50.3732 32.0937 50.8117 31.9183C51.3355 29.8729 52.3686 27.0522 54.2904 26.4874C54.5552 26.4102 54.9437 26.7295 55.0173 26.6698C55.0997 26.6032 55.0909 26.0629 55.4205 25.9191C55.9208 25.705 56.842 25.9822 57.4689 25.8594C60.1147 25.3472 62.6722 24.8701 65.3828 24.7613C66.3069 24.7262 68.6378 24.5298 69.3147 24.5824C69.8121 24.6245 71.9046 25.1016 72.4078 25.277C74.2531 25.9261 74.5004 29.487 74.6887 31.4271C74.8094 31.7218 76.7665 32.6726 77.0579 32.7217C78.9591 33.0339 86.3256 30.6763 88.4828 29.8449C90.6401 29.0134 91.6731 27.9995 94.0217 27.5785C97.1972 27.0066 104.225 26.2418 107.048 27.4943C107.445 27.6697 107.339 28.1714 107.477 28.0977L108.522 27.2663C108.813 28.6696 109.255 29.6309 108.722 31.1009L108.295 30.9991L108.543 31.8095L108.06 31.985C108.887 32.9217 108.178 34.2127 108.169 35.153C108.137 38.3315 108.381 41.8083 108.272 44.8395C108.231 45.9797 107.78 48.1478 107.589 49.3021L100.726 54.147C98.2656 57.915 93.7009 59.9428 91.0933 63.4652C89.7366 65.2965 87.8265 71.6255 87.0084 74.1059C85.3867 79.0211 84.6598 82.2593 83.7474 87.1779C83.3854 89.1286 82.7674 93.735 82.2377 95.2541C82.1582 95.4857 81.9581 95.4892 81.7844 95.4576L82.2465 95.8681C82.0964 96.0295 81.8874 96.2294 81.858 96.468C81.6284 98.3064 81.7491 100.587 81.446 102.401C80.8426 105.99 79.1769 108.407 78.4058 111.526C77.205 116.388 76.4899 123.191 76.8695 128.057C76.9814 129.481 77.8613 136.351 77.6053 136.838C77.5052 137.031 77.1462 137.021 77.155 137.154L77.4022 138.084L77.8231 137.996C77.0961 139.561 78.0526 141.29 78.2822 142.732C78.706 145.42 79.2887 150.156 80.3718 152.37C80.5189 152.668 81.081 152.77 81.2017 153.092C81.287 153.313 81.3371 156.59 81.4313 157.134C81.546 157.794 82.3377 158.239 82.2406 159.05C82.167 159.348 81.1399 159.807 80.8485 159.906C80.048 160.176 78.1762 160.369 77.3669 160.2C76.8783 160.098 75.2626 159.274 75.1478 159.281C74.9477 159.292 74.7299 159.913 74.4121 160.004C74.3238 160.028 72.7139 160.07 72.6227 160.06C72.4432 160.039 72.5874 159.271 71.8987 159.485C71.8133 159.513 71.8075 160 71.6279 160.046C70.3801 160.358 68.679 159.902 67.4812 159.884C66.7013 159.874 66.1185 161.302 65.8507 160.039L65.5034 160.046L65.4946 160.59C64.7265 159.979 63.3727 160.13 62.478 160.32C62.4426 160.327 62.3926 159.779 62.2455 160.32L62.2543 160.323ZM54.2315 26.9891V27.2663C54.3816 27.175 54.3816 27.0803 54.2315 26.9891ZM53.4163 27.8241C52.9748 27.7118 52.7865 28.1749 52.4922 28.5187C52.7364 28.6906 53.5517 27.9504 53.4163 27.8241ZM105.155 50.0002L104.808 50.4142L104.917 50.544C105.046 50.3686 105.385 50.1826 105.155 50.0002ZM101.665 51.6596V51.9368C101.815 51.8456 101.815 51.7509 101.665 51.6596ZM85.1572 73.5586V73.8358C85.3073 73.7446 85.3073 73.6498 85.1572 73.5586ZM85.0394 74.3936C84.286 74.1796 84.5803 75.5829 84.3449 76.053C84.8158 75.9022 84.7451 74.8251 85.0394 74.3936ZM84.339 77.7125C84.392 77.6493 84.598 76.8249 84.5715 76.6074C84.1242 76.7442 84.0476 77.2213 84.1124 77.716C84.1889 77.702 84.3066 77.7546 84.339 77.716V77.7125ZM31.4434 79.1018V79.3789C31.5935 79.2877 31.5935 79.193 31.4434 79.1018ZM28.1884 101.555V101.832C28.3385 101.741 28.3385 101.646 28.1884 101.555ZM27.8411 143.416L27.1436 143.55L27.4909 143.96L27.8382 143.413L27.8411 143.416ZM25.1659 148.679V148.956C25.316 148.865 25.316 148.77 25.1659 148.679ZM29.4686 155.334H29.0036V155.885L29.4657 155.334H29.4686ZM63.5316 158.937V159.214C63.6817 159.123 63.6817 159.028 63.5316 158.937ZM64.5764 159.488V158.937H64.3498V159.488H64.5764ZM73.4144 159.214H72.9523V159.485H73.4144V159.214ZM61.4391 160.046V160.323C61.5892 160.232 61.5892 160.137 61.4391 160.046Z" fill="#F4F3DA"/>
</g>
<defs>
<clipPath id="clip0_136_288">
<rect width="138" height="138" fill="white" transform="translate(24 24)"/>
</clipPath>
</defs>
</svg>
