<?xml version="1.0" encoding="UTF-8"?>
<svg id="Calque_2" data-name="Calque 2" xmlns="http://www.w3.org/2000/svg" viewBox="0 0 173.83 803.49">
  <defs>
    <style>
      .cls-1 {
        fill: #bf5226;
      }
    </style>
  </defs>
  <g id="Calque_1-2" data-name="Calque 1">
    <g>
      <path class="cls-1" d="M150.8,569.81c-8.76,10.86-28.59,20.84-41.29,22.13-8.32.85-15.26-1.61-22.57-1.7-21.44-.26-52.36,3.26-72.33.15-5.44-.85-7.14-4.63-7.75-10.83-1.89-19.16.46-44.67.09-64.81-.45-24.54-3.95-51.66-1.5-76.28.68-6.85,2.31-9.07,8.15-10.36,22.85-5.06,90.57-3.13,112.54,5.04,47.17,17.56,56.01,97.8,24.66,136.66ZM121.06,541.61c13.42-15.73,12.66-47.34-2.67-61.22-10.92-9.88-37.93-11-51.39-9.6-10.51,1.1-21.97,9.14-23.34,22.43-.89,8.69-.86,42.31,2.27,48.84,6.3,13.14,25.78,9.87,36.75,10.02,3.32.04,6.12,1.71,9.63,1.62,9.04-.24,22.2-4.42,28.74-12.09Z"/>
      <path class="cls-1" d="M125.9,309.13c3.28-7.37.14-13.66,0-20.62-.4-19.29-1.3-44.38,0-63.18.28-4.06.63-8.26,2.83-11.61,7.45-.33,32.66-4.51,35.17,5.36.82,32.53-.12,65.1.22,97.64.04,3.92,1.48,7.55,1.53,11.48.12,8.34,1.17,42.78-2.17,47.37-2.49,3.42-29.08,1.46-34.72.83l-75.8-93.84c-4.36-.51-7.01,4.86-7.64,9.3-2.07,14.76,2.91,73.57-1.6,81.08-1.05,1.75-1.6,2.22-3.43,2.61-4.02.86-25.81,1.18-28.41-1.56-3.68-3.88-1.7-17.73-2.05-24.15-.18-3.26-1.34-6.37-1.46-9.9-1.43-41.46,1.03-83.61.24-125.11,2.08-3.76,31.06-4.87,35.19-2.68,2.39,1.27,22.73,26.21,26.24,30.64,11.53,14.56,21.57,31.23,33.21,45.69,3.17,3.93,18.57,23.94,22.63,20.65Z"/>
      <path class="cls-1" d="M172.59,100.81c-3.5,34.6-39.19,61.29-66.23,66.73-35.33,7.11-77.91-7.25-96.31-45.49C-1.19,98.67.83,54.73,2.71,27.83c.49-7.02.68-23.33,5.99-26.17,3.42-1.82,29.02-2.19,32.23-.4,2.14,1.19,3.78,5.67,4.16,8.4,3.11,22.3-1.71,54.2.03,77.94,3.25,44.2,51.47,54.02,76.53,26.52,18.53-20.34,5.74-80.71,10.57-108.73,1.57-3.68,9.31-4.68,12.71-5.01,4.49-.44,27.66-1.51,27.66,4.21v96.23Z"/>
      <path class="cls-1" d="M1.81,803.49c-3.89-1.28-.43-8.38.47-11.07,10.01-30.02,25.41-67.5,37.25-97.37,3.41-8.6,18.52-46.16,22.85-50.36,5.03-4.88,40.64-1.39,49.15-1.3,16.68,30.61,26.98,65.06,39.4,98.17,7.53,20.08,16.58,39.93,22.91,60.25l-34.42,1.35c-4.64-1.64-11.3-26.07-23.22-29.2-7.04-1.85-51.26-1.31-58.2.79-13.19,3.99-16.22,28.73-22.21,28.73H1.81ZM88.37,684.15c-3.07.63-16.18,30.04-17.22,34.67-.81,3.64-2.14,13.38,1.65,14.76,2.98,1.09,17.42,2.18,21.03,1.86,8.98-.8,14.13-3.3,11.39-14.96-.95-4.02-11.64-31.66-13.47-33.99-.94-1.2-1.69-2.68-3.37-2.34Z"/>
    </g>
  </g>
</svg>