<?xml version="1.0" encoding="UTF-8"?>
<svg id="Calque_2" data-name="Calque 2" xmlns="http://www.w3.org/2000/svg" viewBox="0 0 738.69 176.26">
  <defs>
    <style>
      .cls-1 {
        fill: #bf5226;
      }
    </style>
  </defs>
  <g id="Calque_1-2" data-name="Calque 1">
    <g>
      <path class="cls-1" d="M535.11,150.16c-9.1,11.28-29.71,21.66-42.91,23-8.65.88-15.86-1.67-23.46-1.77-22.29-.27-54.42,3.39-75.18.16-5.65-.88-7.42-4.81-8.05-11.25-1.97-19.91.48-46.43.09-67.36-.46-25.5-4.11-53.69-1.56-79.27.71-7.12,2.4-9.43,8.47-10.77,23.75-5.26,94.13-3.26,116.96,5.24,49.02,18.24,58.21,101.64,25.63,142.03ZM504.21,120.84c13.95-16.35,13.16-49.19-2.78-63.62-11.35-10.27-39.42-11.44-53.4-9.98-10.92,1.14-22.83,9.49-24.25,23.31-.93,9.03-.89,43.97,2.36,50.76,6.55,13.66,26.79,10.26,38.19,10.41,3.45.05,6.36,1.78,10.01,1.68,9.39-.25,23.08-4.6,29.87-12.56Z"/>
      <path class="cls-1" d="M323.69,102.44c3.41-7.66.15-14.19,0-21.43-.42-20.05-1.35-46.12,0-65.66.29-4.22.65-8.58,2.94-12.07,7.75-.34,33.94-4.68,36.56,5.57.85,33.81-.13,67.66.22,101.47.04,4.07,1.53,7.85,1.59,11.93.12,8.66,1.22,44.46-2.25,49.23-2.59,3.55-30.22,1.52-36.08.86l-78.78-97.53c-4.53-.53-7.29,5.05-7.94,9.67-2.15,15.34,3.03,76.46-1.66,84.26-1.09,1.82-1.66,2.31-3.57,2.71-4.18.89-26.82,1.23-29.52-1.62-3.83-4.03-1.76-18.42-2.13-25.09-.19-3.39-1.39-6.62-1.52-10.29-1.49-43.09,1.07-86.89.25-130.03,2.16-3.9,32.28-5.06,36.57-2.78,2.48,1.32,23.62,27.24,27.27,31.84,11.99,15.13,22.42,32.45,34.52,47.49,3.29,4.09,19.3,24.88,23.52,21.46Z"/>
      <path class="cls-1" d="M178.08,105.08c-3.64,35.96-40.73,63.7-68.83,69.35-36.72,7.39-80.97-7.53-100.09-47.28C-2.53,102.85-.43,57.19,1.52,29.23c.51-7.3.71-24.25,6.22-27.19C11.3.14,37.9-.24,41.24,1.62c2.22,1.24,3.93,5.89,4.33,8.73,3.24,23.17-1.78,56.33.03,81,3.37,45.94,53.49,56.15,79.54,27.56,19.26-21.14,5.97-83.88,10.99-113,1.63-3.82,9.67-4.86,13.21-5.21,4.67-.46,28.74-1.57,28.74,4.37v100.01Z"/>
      <path class="cls-1" d="M559.91,173.19c-4.05-1.33-.44-8.71.49-11.51,10.41-31.2,26.41-70.15,38.71-101.19,3.54-8.94,19.25-47.97,23.75-52.34,5.22-5.08,42.24-1.44,51.08-1.35,17.34,31.81,28.04,67.61,40.95,102.03,7.82,20.87,17.23,41.5,23.81,62.62l-35.77,1.4c-4.82-1.71-11.75-27.09-24.13-30.34-7.31-1.92-53.27-1.36-60.48.82-13.71,4.14-16.85,29.86-23.08,29.86h-35.31ZM649.87,49.17c-3.19.65-16.82,31.22-17.9,36.03-.85,3.78-2.22,13.9,1.71,15.34,3.1,1.13,18.11,2.26,21.85,1.93,9.34-.83,14.69-3.43,11.83-15.55-.98-4.18-12.1-32.9-13.99-35.32-.98-1.25-1.75-2.79-3.5-2.43Z"/>
    </g>
  </g>
</svg>