<?xml version="1.0" encoding="UTF-8"?>
<svg id="Calque_2" data-name="Calque 2" xmlns="http://www.w3.org/2000/svg" viewBox="0 0 668.32 662.13">
  <defs>
    <style>
      .cls-1 {
        fill: #bf5226;
      }
    </style>
  </defs>
  <g id="Calque_1-2" data-name="Calque 1">
    <g>
      <path class="cls-1" d="M295.69,620.69c-16.27,20.17-53.11,38.71-76.69,41.11-15.46,1.58-28.34-2.99-41.93-3.16-39.83-.49-97.27,6.06-134.37.28-10.1-1.57-13.26-8.61-14.39-20.12-3.52-35.59.85-82.98.17-120.39-.83-45.58-7.35-95.97-2.78-141.69,1.27-12.73,4.3-16.85,15.13-19.25,42.45-9.4,168.24-5.82,209.05,9.37,87.63,32.61,104.04,181.68,45.82,253.86ZM240.45,568.29c24.93-29.22,23.53-87.93-4.97-113.71-20.29-18.36-70.46-20.44-95.45-17.83-19.52,2.04-40.81,16.97-43.35,41.66-1.66,16.15-1.6,78.59,4.22,90.73,11.7,24.41,47.89,18.33,68.26,18.61,6.17.08,11.37,3.18,17.89,3,16.79-.45,41.24-8.22,53.39-22.45Z"/>
      <path class="cls-1" d="M582.85,182.56c6.09-13.69.27-25.37,0-38.31-.74-35.84-2.42-82.44,0-117.36.52-7.54,1.16-15.34,5.26-21.57,13.84-.61,60.66-8.37,65.34,9.96,1.53,60.42-.23,120.93.4,181.37.08,7.28,2.74,14.03,2.85,21.32.22,15.48,2.18,79.47-4.03,87.99-4.62,6.35-54.02,2.71-64.49,1.54l-140.81-174.31c-8.1-.96-13.03,9.03-14.18,17.28-3.84,27.42,5.41,136.66-2.97,150.61-1.95,3.25-2.97,4.12-6.38,4.85-7.47,1.59-47.94,2.2-52.77-2.89-6.84-7.21-3.15-32.93-3.81-44.85-.33-6.06-2.48-11.83-2.71-18.4-2.66-77.02,1.92-155.31.45-232.41,3.87-6.98,57.7-9.05,65.36-4.97,4.43,2.36,42.22,48.69,48.74,56.92,21.42,27.05,40.07,58.01,61.7,84.88,5.88,7.3,34.5,44.46,42.04,38.35Z"/>
      <path class="cls-1" d="M318.3,187.27c-6.5,64.28-72.79,113.85-123.03,123.96-65.63,13.2-144.72-13.46-178.89-84.51C-4.51,183.29-.76,101.67,2.73,51.69,3.64,38.64,3.99,8.35,13.85,3.09c6.35-3.39,53.9-4.07,59.87-.74,3.97,2.21,7.02,10.53,7.73,15.6,5.79,41.41-3.18,100.68.06,144.78,6.03,82.1,95.61,100.35,142.16,49.26,34.43-37.79,10.66-149.93,19.64-201.97,2.92-6.83,17.29-8.69,23.62-9.31,8.35-.82,51.38-2.81,51.38,7.81v178.75Z"/>
      <path class="cls-1" d="M348.77,661.85c-7.23-2.38-.79-15.57.87-20.57,18.6-55.77,47.2-125.38,69.19-180.87,6.33-15.97,34.41-85.74,42.44-93.54,9.34-9.07,75.5-2.58,91.3-2.41,30.99,56.86,50.12,120.85,73.19,182.37,13.99,37.3,30.79,74.17,42.55,111.92l-63.93,2.51c-8.62-3.05-21-48.42-43.14-54.23-13.07-3.43-95.21-2.44-108.11,1.46-24.5,7.41-30.12,53.37-41.25,53.37h-63.12ZM509.56,440.17c-5.71,1.17-30.06,55.8-31.99,64.39-1.51,6.75-3.97,24.85,3.06,27.42,5.54,2.02,32.36,4.05,39.06,3.46,16.69-1.48,26.25-6.14,21.15-27.79-1.76-7.47-21.63-58.81-25.01-63.14-1.75-2.23-3.13-4.98-6.26-4.34Z"/>
    </g>
  </g>
</svg>