<?xml version="1.0" encoding="UTF-8"?>
<svg id="Calque_2" data-name="Calque 2" xmlns="http://www.w3.org/2000/svg" viewBox="0 0 468.9 393.35">
  <defs>
    <style>
      .cls-1 {
        fill: #bf5226;
      }
    </style>
  </defs>
  <g id="Calque_1-2" data-name="Calque 1">
    <g>
      <path class="cls-1" d="M465.75,3.77c2.63,5.55-.35,10.09.01,15.81,1.06-.15,2.06-2.6,3.13-1.19-2.8,16.53-7.53,32.91-8.66,49.79-.31,4.61,1.64,5.64,1.63,6.26-.1,7.32-3.44,16.19-4.01,23.77-.47,6.28.33,13.02-.02,19.35l-2.35-2.37.08,3.9,2.19.1c.87.88-2.1,16.53-2.27,19.32-.38,6.15-.37,12.37-.76,18.21-2.25,33.5-2.86,66.92-4.94,100.3-.55,8.75-4.3,21.18.97,27.72l-3.17,27.19,3.13.38c-4.93,21.1-1.19,43.35-7.16,64.33l-3.09.08.76,2.66c-.57,2.05-9.85,1.31-12.2,1.27-4.66-.06-10.45-1.09-15.02-1.13-9.95-.09-20.22,1.31-30.01.33-1.48,1.34,1.47.11,1.17,1.59l-39.49,3.95-1.98-66.36c-.94.75-1.35,1.83-1.88,2.86-7.96,15.71-11.23,33.54-17.09,50.07-.79,2.22-2.24,4.79-3.46,6.84l2.2,1.96.07,4.62c-.49.47-6.34-4.06-6.71-.03l1.23,3.47-2.83,2.11-.77-1.6h-1.59s-.75,1.6-.75,1.6c-3.83-3.33-5.04.74-7.31,1.41-.56.16-11,1.05-11.57.99-.26-.03-1.51-2.77-4.16-2.96-1.39-.1-2.95.75-4.65.63-7.02-.5-12.78-.62-19.09-3.24-6.51-2.7-16.17-2.53-23.16-3.55l-5.96-10.63c-5.3-40.81-10.25-83.65-9.08-125.31,1.16-41.28,15.48-78.5,34.66-114.67,3.23-6.1,7.68-12.05,10.82-18.42,3.87-7.86,6.15-17.39,10.23-24.54,6.58-11.53,15.37-22.27,19.76-35.55,4.95-14.98,2.77-26.69,4.43-41.39.18-1.58.9-2.99,1.51-4.41l-2.36.78c-.48-3.09,2.83-4.53,5.35-5.3,4.7-1.43,18.17-3.07,23.44-3.42C368.15-.81,402.88.8,436.15.02c10.44-.25,17.36,2.39,27.04,4.4.89.18,1.78-.28,2.56-.65ZM459.83,9.31v.79c.51-.26.51-.53,0-.79ZM462.2,9.31v.79c.51-.26.51-.53,0-.79ZM345.66,328.51c.61-1.29-1.06-5.82-1.56-4.73l.79,4.73h.77ZM351.99,379.08l1.55-1.18-.78-1.98h-.77s0,3.15,0,3.15ZM439.29,375.92v.79c.51-.26.51-.53,0-.79Z"/>
      <path class="cls-1" d="M129.98,388.57l-11.85,1.58.78-2.36-2.33.6-.43.98-.81-1.63-3.15,1.61v-1.57c-3.29,2.11-9.89.47-10.27,4.75h-1.16c-.07-1.03-.35-1.75-1.33-2.22-5.91-2.87-29.52-1.75-37.74-1.84-9.12-.1-18.38.55-27.72.83-3.08.09-6.41,1.47-9.45.84-2.31-.48-2.93-3.18-4.64-4.42-2.4-1.74-5.45-.33-4.47-5.84l-2.36.79.76-1.99-1.6-.02c-1.17-1.54-1.24-4.17-1.74-5.49-.2-.54-2.41-.23-.62-2.38l-2.34.41.78-3.94-1.17,1.58-1.95-.83.74-5.48c-2.26.48-2.69-.78-3.1-2.84-.5-2.46,1.94,1,1.54-1.52l-1.62-.9.74-3.9c-3.74-10.6-1.67-27.46-.41-39.57.72-6.95,1.28-13.89,3.6-20.49l-1.51-.72c4.16-10.9,7.5-24.71,9.37-36.46.63-3.94-.22-8.7,1.67-11.75l-1.56.41-2.15-18.72c2.46-4.07.1-1.92-.23-3.13-.56-2.03.43-6.07-.07-9.24-2.14-13.41-9.75-27.2-11.69-41.3-2.51-18.3,5.17-55.24,11.41-72.97,6.08-17.27,15.64-34.23,20.04-51.86,1.88-7.52-1.18-17.57,8.03-21.99,8.09-3.88,10.84.48,18.33-.64,1.06-.16,2.13-1.27,3.41-1.44s.88,1.78,3.35,1.96c4.04.3,17.96.08,21.54-.83,1.43-.36,3.01-1.56,4.5-2.06,1.78-5.83,5.29-13.87,11.82-15.48.9-.22,2.22.69,2.47.52.28-.19.25-1.73,1.37-2.14,1.7-.61,4.83.18,6.96-.17,8.99-1.46,17.68-2.82,26.89-3.13,3.14-.1,11.06-.66,13.36-.51,1.69.12,8.8,1.48,10.51,1.98,6.27,1.85,7.11,12,7.75,17.53.41.84,7.06,3.55,8.05,3.69,6.46.89,31.49-5.83,38.82-8.2s10.84-5.26,18.82-6.46c10.79-1.63,34.67-3.81,44.26-.24,1.35.5.99,1.93,1.46,1.72l3.55-2.37c.99,4,2.49,6.74.68,10.93l-1.45-.29.84,2.31-1.64.5c2.81,2.67.4,6.35.37,9.03-.11,9.06.72,18.97.35,27.61-.14,3.25-1.67,9.43-2.32,12.72l-23.32,13.81c-8.36,10.74-23.87,16.52-32.73,26.56-4.61,5.22-11.1,23.26-13.88,30.33-5.51,14.01-7.98,23.24-11.08,37.26-1.23,5.56-3.33,18.69-5.13,23.02-.27.66-.95.67-1.54.58l1.57,1.17c-.51.46-1.22,1.03-1.32,1.71-.78,5.24-.37,11.74-1.4,16.91-2.05,10.23-7.71,17.12-10.33,26.01-4.08,13.86-6.51,33.25-5.22,47.12.38,4.06,3.37,23.64,2.5,25.03-.34.55-1.56.52-1.53.9l.84,2.65,1.43-.25c-2.47,4.46.78,9.39,1.56,13.5,1.44,7.66,3.42,21.16,7.1,27.47.5.85,2.41,1.14,2.82,2.06.29.63.46,9.97.78,11.52.39,1.88,3.08,3.15,2.75,5.46-.25.85-3.74,2.16-4.73,2.44-2.72.77-9.08,1.32-11.83.84-1.66-.29-7.15-2.64-7.54-2.62-.68.03-1.42,1.8-2.5,2.06-.3.07-5.77.19-6.08.16-.61-.06-.12-2.25-2.46-1.64-.29.08-.31,1.47-.92,1.6-4.24.89-10.02-.41-14.09-.46-2.65-.03-4.63,4.04-5.54.44l-1.18.02-.03,1.55c-2.61-1.74-7.21-1.31-10.25-.77-.12.02-.29-1.54-.79,0ZM102.72,8.52v.79c.51-.26.51-.53,0-.79ZM99.95,10.9c-1.5-.32-2.14,1-3.14,1.98.83.49,3.6-1.62,3.14-1.98ZM275.75,74.11l-1.18,1.18.37.37c.44-.5,1.59-1.03.81-1.55ZM263.89,78.84v.79c.51-.26.51-.53,0-.79ZM207.8,141.26v.79c.51-.26.51-.53,0-.79ZM207.4,143.64c-2.56-.61-1.56,3.39-2.36,4.73,1.6-.43,1.36-3.5,2.36-4.73ZM205.02,153.1c.18-.18.88-2.53.79-3.15-1.52.39-1.78,1.75-1.56,3.16.26-.04.66.11.77,0ZM25.29,157.06v.79c.51-.26.51-.53,0-.79ZM14.23,221.06v.79c.51-.26.51-.53,0-.79ZM13.05,340.38l-2.37.38,1.18,1.17,1.18-1.56ZM3.96,355.38v.79c.51-.26.51-.53,0-.79ZM18.58,374.35h-1.58s0,1.57,0,1.57l1.57-1.57ZM134.32,384.62v.79c.51-.26.51-.53,0-.79ZM137.87,386.19v-1.57h-.77v1.57h.77ZM167.9,385.41h-1.57v.77h1.57v-.77ZM127.21,387.78v.79c.51-.26.51-.53,0-.79Z"/>
    </g>
  </g>
</svg>