<?xml version="1.0" encoding="UTF-8"?>
<svg id="Calque_2" data-name="Calque 2" xmlns="http://www.w3.org/2000/svg" viewBox="0 0 878.23 843.7">
  <defs>
    <style>
      .cls-1 {
        fill: #bf5226;
      }
    </style>
  </defs>
  <g id="Calque_1-2" data-name="Calque 1">
    <g>
      <g>
        <path class="cls-1" d="M636.19,694.73c-10.82,13.41-35.33,25.75-51.01,27.35-10.29,1.05-18.85-1.99-27.89-2.1-26.5-.33-64.7,4.03-89.38.19-6.72-1.05-8.82-5.72-9.57-13.38-2.34-23.68.57-55.2.11-80.08-.55-30.32-4.89-63.84-1.85-94.25.85-8.47,2.86-11.21,10.07-12.8,28.24-6.25,111.91-3.87,139.05,6.23,58.29,21.69,69.21,120.84,30.48,168.86ZM599.45,659.88c16.58-19.44,15.65-58.49-3.3-75.64-13.49-12.21-46.87-13.6-63.49-11.86-12.99,1.35-27.15,11.29-28.83,27.71-1.1,10.74-1.06,52.27,2.81,60.35,7.78,16.24,31.85,12.2,45.41,12.38,4.11.06,7.57,2.11,11.9,2,11.17-.3,27.43-5.46,35.52-14.94Z"/>
        <path class="cls-1" d="M384.83,638c4.05-9.1.18-16.87,0-25.48-.49-23.84-1.61-54.83,0-78.07.35-5.01.77-10.2,3.5-14.35,9.21-.41,40.35-5.57,43.46,6.62,1.02,40.19-.15,80.44.27,120.64.05,4.84,1.82,9.33,1.89,14.18.15,10.3,1.45,52.86-2.68,58.53-3.07,4.22-35.93,1.81-42.89,1.02l-93.66-115.95c-5.39-.64-8.67,6.01-9.44,11.5-2.55,18.24,3.6,90.9-1.98,100.18-1.3,2.16-1.98,2.74-4.24,3.23-4.97,1.06-31.89,1.46-35.1-1.92-4.55-4.8-2.1-21.91-2.53-29.83-.22-4.03-1.65-7.87-1.8-12.24-1.77-51.23,1.28-103.31.3-154.59,2.57-4.64,38.38-6.02,43.48-3.31,2.95,1.57,28.08,32.39,32.42,37.86,14.25,17.99,26.65,38.59,41.04,56.46,3.91,4.86,22.95,29.57,27.96,25.51Z"/>
        <path class="cls-1" d="M211.72,641.14c-4.33,42.75-48.42,75.73-81.83,82.45-43.66,8.78-96.26-8.96-118.99-56.21-13.89-28.89-11.4-83.18-9.08-116.42.61-8.68.84-28.83,7.4-32.33,4.22-2.25,35.85-2.71,39.82-.49,2.64,1.47,4.67,7,5.14,10.37,3.85,27.55-2.12,66.97.04,96.31,4.01,54.61,63.59,66.75,94.56,32.76,22.9-25.14,7.09-99.73,13.06-134.34,1.94-4.55,11.5-5.78,15.71-6.19,5.55-.55,34.17-1.87,34.17,5.2v118.9Z"/>
        <path class="cls-1" d="M665.68,722.11c-4.81-1.58-.53-10.36.58-13.68,12.37-37.09,31.39-83.4,46.03-120.31,4.21-10.62,22.89-57.03,28.23-62.22,6.21-6.04,50.22-1.71,60.73-1.6,20.61,37.82,33.34,80.38,48.68,121.3,9.3,24.81,20.48,49.34,28.31,74.44l-42.53,1.67c-5.73-2.03-13.97-32.21-28.69-36.07-8.69-2.28-63.33-1.62-71.91.97-16.3,4.93-20.04,35.5-27.44,35.5h-41.98ZM772.63,574.66c-3.8.78-20,37.11-21.28,42.83-1.01,4.49-2.64,16.53,2.03,18.24,3.69,1.34,21.53,2.69,25.98,2.3,11.1-.98,17.46-4.08,14.07-18.49-1.17-4.97-14.39-39.12-16.64-42-1.16-1.48-2.08-3.31-4.17-2.89Z"/>
      </g>
      <g>
        <path class="cls-1" d="M650.08,3.77c2.63,5.55-.35,10.09.01,15.81,1.06-.15,2.06-2.6,3.13-1.19-2.8,16.53-7.53,32.91-8.66,49.79-.31,4.61,1.64,5.64,1.63,6.26-.1,7.32-3.44,16.19-4.01,23.77-.47,6.28.33,13.02-.02,19.35l-2.35-2.37.08,3.9,2.19.1c.87.88-2.1,16.53-2.27,19.32-.38,6.15-.37,12.37-.76,18.21-2.25,33.5-2.86,66.92-4.94,100.3-.55,8.75-4.3,21.18.97,27.72l-3.17,27.19,3.13.38c-4.93,21.1-1.19,43.35-7.16,64.33l-3.09.08.76,2.66c-.57,2.05-9.85,1.31-12.2,1.27-4.66-.06-10.45-1.09-15.02-1.13-9.95-.09-20.22,1.31-30.01.33-1.48,1.34,1.47.11,1.17,1.59l-39.49,3.95-1.98-66.36c-.94.75-1.35,1.83-1.88,2.86-7.96,15.71-11.23,33.54-17.09,50.07-.79,2.22-2.24,4.79-3.46,6.84l2.2,1.96.07,4.62c-.49.47-6.34-4.06-6.71-.03l1.23,3.47-2.83,2.11-.77-1.6h-1.59s-.75,1.6-.75,1.6c-3.83-3.33-5.04.74-7.31,1.41-.56.16-11,1.05-11.57.99-.26-.03-1.51-2.77-4.16-2.96-1.39-.1-2.95.75-4.65.63-7.02-.5-12.78-.62-19.09-3.24-6.51-2.7-16.17-2.53-23.16-3.55l-5.96-10.63c-5.3-40.81-10.25-83.65-9.08-125.31,1.16-41.28,15.48-78.5,34.66-114.67,3.23-6.1,7.68-12.05,10.82-18.42,3.87-7.86,6.15-17.39,10.23-24.54,6.58-11.53,15.37-22.27,19.76-35.55,4.95-14.98,2.77-26.69,4.43-41.39.18-1.58.9-2.99,1.51-4.41l-2.36.78c-.48-3.09,2.83-4.53,5.35-5.3,4.7-1.43,18.17-3.07,23.44-3.42,33.18-2.18,67.91-.57,101.18-1.36,10.44-.25,17.36,2.39,27.04,4.4.89.18,1.78-.28,2.56-.65ZM644.16,9.31v.79c.51-.26.51-.53,0-.79ZM646.53,9.31v.79c.51-.26.51-.53,0-.79ZM529.98,328.51c.61-1.29-1.06-5.82-1.56-4.73l.79,4.73h.77ZM536.32,379.08l1.55-1.18-.78-1.98h-.77s0,3.15,0,3.15ZM623.61,375.92v.79c.51-.26.51-.53,0-.79Z"/>
        <path class="cls-1" d="M314.3,388.57l-11.85,1.58.78-2.36-2.33.6-.43.98-.81-1.63-3.15,1.61v-1.57c-3.29,2.11-9.89.47-10.27,4.75h-1.16c-.07-1.03-.35-1.75-1.33-2.22-5.91-2.87-29.52-1.75-37.74-1.84-9.12-.1-18.38.55-27.72.83-3.08.09-6.41,1.47-9.45.84-2.31-.48-2.93-3.18-4.64-4.42-2.4-1.74-5.45-.33-4.47-5.84l-2.36.79.76-1.99-1.6-.02c-1.17-1.54-1.24-4.17-1.74-5.49-.2-.54-2.41-.23-.62-2.38l-2.34.41.78-3.94-1.17,1.58-1.95-.83.74-5.48c-2.26.48-2.69-.78-3.1-2.84-.5-2.46,1.94,1,1.54-1.52l-1.62-.9.74-3.9c-3.74-10.6-1.67-27.46-.41-39.57.72-6.95,1.28-13.89,3.6-20.49l-1.51-.72c4.16-10.9,7.5-24.71,9.37-36.46.63-3.94-.22-8.7,1.67-11.75l-1.56.41-2.15-18.72c2.46-4.07.1-1.92-.23-3.13-.56-2.03.43-6.07-.07-9.24-2.14-13.41-9.75-27.2-11.69-41.3-2.51-18.3,5.17-55.24,11.41-72.97,6.08-17.27,15.64-34.23,20.04-51.86,1.88-7.52-1.18-17.57,8.03-21.99,8.09-3.88,10.84.48,18.33-.64,1.06-.16,2.13-1.27,3.41-1.44s.88,1.78,3.35,1.96c4.04.3,17.96.08,21.54-.83,1.43-.36,3.01-1.56,4.5-2.06,1.78-5.83,5.29-13.87,11.82-15.48.9-.22,2.22.69,2.47.52.28-.19.25-1.73,1.37-2.14,1.7-.61,4.83.18,6.96-.17,8.99-1.46,17.68-2.82,26.89-3.13,3.14-.1,11.06-.66,13.36-.51,1.69.12,8.8,1.48,10.51,1.98,6.27,1.85,7.11,12,7.75,17.53.41.84,7.06,3.55,8.05,3.69,6.46.89,31.49-5.83,38.82-8.2s10.84-5.26,18.82-6.46c10.79-1.63,34.67-3.81,44.26-.24,1.35.5.99,1.93,1.46,1.72l3.55-2.37c.99,4,2.49,6.74.68,10.93l-1.45-.29.84,2.31-1.64.5c2.81,2.67.4,6.35.37,9.03-.11,9.06.72,18.97.35,27.61-.14,3.25-1.67,9.43-2.32,12.72l-23.32,13.81c-8.36,10.74-23.87,16.52-32.73,26.56-4.61,5.22-11.1,23.26-13.88,30.33-5.51,14.01-7.98,23.24-11.08,37.26-1.23,5.56-3.33,18.69-5.13,23.02-.27.66-.95.67-1.54.58l1.57,1.17c-.51.46-1.22,1.03-1.32,1.71-.78,5.24-.37,11.74-1.4,16.91-2.05,10.23-7.71,17.12-10.33,26.01-4.08,13.86-6.51,33.25-5.22,47.12.38,4.06,3.37,23.64,2.5,25.03-.34.55-1.56.52-1.53.9l.84,2.65,1.43-.25c-2.47,4.46.78,9.39,1.56,13.5,1.44,7.66,3.42,21.16,7.1,27.47.5.85,2.41,1.14,2.82,2.06.29.63.46,9.97.78,11.52.39,1.88,3.08,3.15,2.75,5.46-.25.85-3.74,2.16-4.73,2.44-2.72.77-9.08,1.32-11.83.84-1.66-.29-7.15-2.64-7.54-2.62-.68.03-1.42,1.8-2.5,2.06-.3.07-5.77.19-6.08.16-.61-.06-.12-2.25-2.46-1.64-.29.08-.31,1.47-.92,1.6-4.24.89-10.02-.41-14.09-.46-2.65-.03-4.63,4.04-5.54.44l-1.18.02-.03,1.55c-2.61-1.74-7.21-1.31-10.25-.77-.12.02-.29-1.54-.79,0ZM287.04,8.52v.79c.51-.26.51-.53,0-.79ZM284.28,10.9c-1.5-.32-2.14,1-3.14,1.98.83.49,3.6-1.62,3.14-1.98ZM460.08,74.11l-1.18,1.18.37.37c.44-.5,1.59-1.03.81-1.55ZM448.22,78.84v.79c.51-.26.51-.53,0-.79ZM392.12,141.26v.79c.51-.26.51-.53,0-.79ZM391.73,143.64c-2.56-.61-1.56,3.39-2.36,4.73,1.6-.43,1.36-3.5,2.36-4.73ZM389.35,153.1c.18-.18.88-2.53.79-3.15-1.52.39-1.78,1.75-1.56,3.16.26-.04.66.11.77,0ZM209.62,157.06v.79c.51-.26.51-.53,0-.79ZM198.56,221.06v.79c.51-.26.51-.53,0-.79ZM197.37,340.38l-2.37.38,1.18,1.17,1.18-1.56ZM188.28,355.38v.79c.51-.26.51-.53,0-.79ZM202.9,374.35h-1.58s0,1.57,0,1.57l1.57-1.57ZM318.65,384.62v.79c.51-.26.51-.53,0-.79ZM322.19,386.19v-1.57h-.77v1.57h.77ZM352.22,385.41h-1.57v.77h1.57v-.77ZM311.54,387.78v.79c.51-.26.51-.53,0-.79Z"/>
      </g>
      <g>
        <path class="cls-1" d="M209.22,833.72v-35.92h6.36l3.44,13.26c.39,1.54.86,3.55,1.41,6.03h.51c.38-1.8.84-3.81,1.38-6.03l3.39-13.26h6.54v35.92h-5.03l.08-11.78c.05-5.42.24-10.54.56-15.34l-.54-.08-5.13,18.91h-3.13l-5.03-18.93-.54.05c.31,5.56.47,10.69.49,15.39l.05,11.78h-4.82Z"/>
        <path class="cls-1" d="M241.18,833.72h-5.31l8.08-35.92h7.95l8.29,35.92h-5.72l-1.67-7h-9.95l-1.67,7ZM243.7,822.76h8.29l-2.18-10.42c-.62-2.96-1.2-6.25-1.74-9.88h-.54c-.48,3.57-1.03,6.87-1.64,9.88l-2.18,10.42Z"/>
        <path class="cls-1" d="M267.29,831.31c-1.92-1.98-2.94-5.06-3.04-9.24l5.29-1.03c.02,2.26.26,4.05.72,5.38s1.14,2.28,2.04,2.86c.9.58,2.07.87,3.5.87,1.59,0,2.86-.44,3.8-1.32s1.41-2.05,1.41-3.5c0-1.28-.41-2.43-1.22-3.44-.81-1.01-2.19-2.12-4.14-3.34l-3.72-2.36c-1.49-.94-2.71-1.85-3.67-2.73-.96-.88-1.71-1.9-2.26-3.05-.55-1.15-.82-2.49-.82-4.02,0-1.81.41-3.41,1.22-4.8.81-1.39,1.97-2.46,3.48-3.22,1.5-.76,3.25-1.14,5.23-1.14,6.84,0,10.34,3.76,10.49,11.29l-5.03.95c-.02-2.91-.47-4.99-1.36-6.25-.89-1.26-2.27-1.89-4.13-1.89-1.42,0-2.56.41-3.43,1.22-.86.81-1.29,1.89-1.29,3.22,0,.79.16,1.5.47,2.14.32.64.85,1.29,1.6,1.95.75.66,1.81,1.4,3.18,2.22l3.72,2.28c1.47.91,2.71,1.81,3.72,2.72,1.01.91,1.82,1.98,2.44,3.22.62,1.24.92,2.68.92,4.32,0,1.9-.45,3.58-1.33,5.04-.89,1.46-2.15,2.6-3.78,3.4-1.63.8-3.52,1.21-5.66,1.21-3.64,0-6.43-.99-8.35-2.98Z"/>
        <path class="cls-1" d="M294.58,831.31c-1.92-1.98-2.94-5.06-3.04-9.24l5.29-1.03c.02,2.26.26,4.05.72,5.38s1.14,2.28,2.04,2.86c.9.58,2.07.87,3.5.87,1.59,0,2.86-.44,3.8-1.32s1.41-2.05,1.41-3.5c0-1.28-.41-2.43-1.22-3.44-.81-1.01-2.19-2.12-4.14-3.34l-3.72-2.36c-1.49-.94-2.71-1.85-3.67-2.73-.96-.88-1.71-1.9-2.26-3.05-.55-1.15-.82-2.49-.82-4.02,0-1.81.41-3.41,1.22-4.8.81-1.39,1.97-2.46,3.48-3.22,1.5-.76,3.25-1.14,5.23-1.14,6.84,0,10.34,3.76,10.49,11.29l-5.03.95c-.02-2.91-.47-4.99-1.36-6.25-.89-1.26-2.27-1.89-4.13-1.89-1.42,0-2.56.41-3.43,1.22-.86.81-1.29,1.89-1.29,3.22,0,.79.16,1.5.47,2.14.32.64.85,1.29,1.6,1.95.75.66,1.81,1.4,3.18,2.22l3.72,2.28c1.47.91,2.71,1.81,3.72,2.72,1.01.91,1.82,1.98,2.44,3.22.62,1.24.92,2.68.92,4.32,0,1.9-.45,3.58-1.33,5.04-.89,1.46-2.15,2.6-3.78,3.4-1.63.8-3.52,1.21-5.66,1.21-3.64,0-6.43-.99-8.35-2.98Z"/>
        <path class="cls-1" d="M323.08,833.72h-5.31l8.08-35.92h7.95l8.29,35.92h-5.72l-1.67-7h-9.95l-1.67,7ZM325.59,822.76h8.29l-2.18-10.42c-.62-2.96-1.2-6.25-1.74-9.88h-.54c-.48,3.57-1.03,6.87-1.64,9.88l-2.18,10.42Z"/>
        <path class="cls-1" d="M348.71,830.5c-1.59-2.44-2.39-6.02-2.39-10.76v-8.11c0-4.75.95-8.34,2.83-10.75s4.72-3.62,8.48-3.62c3.3,0,5.85.94,7.66,2.83,1.8,1.89,2.74,4.83,2.81,8.81v.08l-5.21,1.08v-.1c-.02-2.12-.22-3.8-.62-5.04s-.97-2.12-1.72-2.64c-.75-.52-1.69-.78-2.82-.78-1.98,0-3.46.77-4.41,2.32-.96,1.55-1.44,3.91-1.44,7.09v9.31c0,3.28.44,5.71,1.31,7.29s2.21,2.36,4.03,2.36,3.21-.84,4.25-2.53c1.04-1.68,1.73-4.39,2.09-8.12h-5.64v-4.21h10.49v18.7h-4.57c-.03-.91.03-1.94.21-3.1.17-1.16.5-2.78,1-4.85l-.54-.13c-.89,2.92-2.02,5.08-3.4,6.45-1.38,1.38-3.18,2.06-5.4,2.06-3.08,0-5.41-1.22-7-3.66Z"/>
        <path class="cls-1" d="M394.94,833.72h-20.4v-35.92h19.99v4.69h-14.44v10.24h12.03v4.36h-12.03v11.9h14.86v4.72Z"/>
        <path class="cls-1" d="M431.07,831.31c-1.92-1.98-2.94-5.06-3.04-9.24l5.29-1.03c.02,2.26.26,4.05.72,5.38s1.14,2.28,2.04,2.86c.9.58,2.07.87,3.5.87,1.59,0,2.86-.44,3.8-1.32s1.41-2.05,1.41-3.5c0-1.28-.41-2.43-1.22-3.44-.81-1.01-2.19-2.12-4.14-3.34l-3.72-2.36c-1.49-.94-2.71-1.85-3.67-2.73-.96-.88-1.71-1.9-2.26-3.05-.55-1.15-.82-2.49-.82-4.02,0-1.81.41-3.41,1.22-4.8.81-1.39,1.97-2.46,3.48-3.22,1.5-.76,3.25-1.14,5.23-1.14,6.84,0,10.34,3.76,10.49,11.29l-5.03.95c-.02-2.91-.47-4.99-1.36-6.25-.89-1.26-2.27-1.89-4.13-1.89-1.42,0-2.56.41-3.43,1.22-.86.81-1.29,1.89-1.29,3.22,0,.79.16,1.5.47,2.14.32.64.85,1.29,1.6,1.95.75.66,1.81,1.4,3.18,2.22l3.72,2.28c1.47.91,2.71,1.81,3.72,2.72,1.01.91,1.82,1.98,2.44,3.22.62,1.24.92,2.68.92,4.32,0,1.9-.45,3.58-1.33,5.04-.89,1.46-2.15,2.6-3.78,3.4-1.63.8-3.52,1.21-5.66,1.21-3.64,0-6.43-.99-8.35-2.98Z"/>
        <path class="cls-1" d="M457.92,830.52c-1.9-2.51-2.85-6.22-2.85-11.15v-7.24c0-4.93.95-8.64,2.86-11.15,1.91-2.51,4.73-3.76,8.48-3.76,7.12,0,10.76,4.44,10.93,13.32l-5.36,1.13c-.02-2.51-.23-4.51-.64-5.99-.41-1.48-1.01-2.54-1.8-3.18-.79-.64-1.8-.96-3.03-.96-1.97,0-3.43.79-4.38,2.37-.95,1.58-1.42,4.02-1.42,7.3v9.06c0,3.28.48,5.71,1.44,7.29s2.43,2.36,4.41,2.36c1.23,0,2.25-.32,3.05-.98.8-.65,1.43-1.74,1.87-3.27s.68-3.6.69-6.2l5.44,1.33c-.1,4.6-1.12,8-3.05,10.19-1.93,2.19-4.64,3.28-8.13,3.28-3.78,0-6.62-1.25-8.52-3.76Z"/>
        <path class="cls-1" d="M485.63,831.82c-1.81-1.64-2.72-4.1-2.72-7.36v-26.66h5.54v26.3c0,3.93,1.75,5.9,5.26,5.9,1.76,0,3.08-.49,3.95-1.46.87-.97,1.31-2.45,1.31-4.44v-26.3h5.54v26.66c0,3.27-.91,5.72-2.72,7.36-1.81,1.64-4.51,2.46-8.08,2.46s-6.27-.82-8.08-2.46Z"/>
        <path class="cls-1" d="M531.43,833.72h-20.01v-35.92h5.54v31.2h14.47v4.72Z"/>
        <path class="cls-1" d="M538.4,833.72v-35.92h10.9c3.56,0,6.25.87,8.07,2.6,1.82,1.74,2.73,4.3,2.73,7.68v1.41c0,3.35-.91,5.89-2.73,7.62-1.82,1.73-4.51,2.59-8.07,2.59h-5.36v14.01h-5.54ZM548.69,815.43c2,0,3.49-.47,4.46-1.42.97-.95,1.46-2.41,1.46-4.37v-1.69c0-1.98-.49-3.45-1.46-4.41-.98-.96-2.46-1.44-4.46-1.44h-4.75v13.34h4.75Z"/>
        <path class="cls-1" d="M578.4,833.72h-5.57v-31.3h-9.18v-4.62h23.91v4.62h-9.16v31.3Z"/>
        <path class="cls-1" d="M596.05,833.72h-5.31l8.08-35.92h7.95l8.29,35.92h-5.72l-1.67-7h-9.95l-1.67,7ZM598.57,822.76h8.29l-2.18-10.42c-.62-2.96-1.2-6.25-1.74-9.88h-.54c-.48,3.57-1.03,6.87-1.64,9.88l-2.18,10.42Z"/>
        <path class="cls-1" d="M619.58,833.72v-35.92h6.29l8.03,21.4c.38.99.71,2.02,1.01,3.08s.62,2.33.96,3.82l.54-.03c-.41-4.26-.62-7.8-.62-10.62v-17.65h5.03v35.92h-6.16l-7.95-21.09c-.43-1.13-.8-2.25-1.13-3.37-.33-1.12-.67-2.46-1.03-4.02l-.51.05c.17,1.8.31,3.69.41,5.67.1,1.98.15,3.79.15,5.41l.03,17.34h-5.05Z"/>
        <path class="cls-1" d="M660.29,833.72h-5.57v-31.3h-9.18v-4.62h23.91v4.62h-9.16v31.3Z"/>
      </g>
    </g>
  </g>
</svg>