<svg width="123" height="10" viewBox="0 0 123 10" fill="currentColor" xmlns="http://www.w3.org/2000/svg">
<path d="M10.1164 3.10859C10.0844 4.39659 10.0684 5.08859 10.0684 5.18459C10.0604 5.92059 9.80841 6.56459 9.31241 7.11659C8.90441 7.57259 8.51641 7.89659 8.14841 8.08859C8.11641 8.10459 7.97241 8.18059 7.71641 8.31659C7.46841 8.44459 7.27641 8.54059 7.14041 8.60459C6.96441 8.68459 6.77241 8.74859 6.56441 8.79659C5.90041 8.93259 5.27241 8.97659 4.68041 8.92859C3.84841 8.85659 3.06041 8.64859 2.31641 8.30459C2.16441 8.24059 2.01641 8.15659 1.87241 8.05259C1.13641 7.51659 0.596406 6.85659 0.252406 6.07259C0.172406 5.88859 0.124406 5.70859 0.108406 5.53259C0.0604063 5.09259 0.0284063 4.65659 0.0124063 4.22459C0.00440629 3.89659 0.0084063 3.55659 0.0244063 3.20459C0.0404063 2.85259 0.0604063 2.44459 0.0844063 1.98059C0.116406 1.50859 0.140406 1.16459 0.156406 0.948593C0.164406 0.740593 0.264406 0.600593 0.456406 0.528593C0.592406 0.472593 0.708406 0.444593 0.804406 0.444593C1.07641 0.436594 1.47241 0.432594 1.99241 0.432594C2.08041 0.432594 2.16441 0.448594 2.24441 0.480594C2.42041 0.536593 2.51641 0.640593 2.53241 0.792593C2.57241 1.00859 2.58841 1.17659 2.58041 1.29659C2.58041 1.61659 2.57641 2.08459 2.56841 2.70059C2.56841 3.30859 2.56841 3.74859 2.56841 4.02059C2.56041 4.32459 2.56441 4.60859 2.58041 4.87259C2.60441 5.17659 2.67641 5.45259 2.79641 5.70059C2.98841 6.10859 3.34441 6.43659 3.86441 6.68459C3.98441 6.74059 4.14441 6.80059 4.34441 6.86459C4.85641 7.02459 5.32441 7.02059 5.74841 6.85259C5.80441 6.83659 5.89241 6.80859 6.01241 6.76859C6.14041 6.72059 6.24841 6.67659 6.33641 6.63659C6.43241 6.59659 6.52041 6.55259 6.60041 6.50459C6.80841 6.37659 6.97241 6.25659 7.09241 6.14459C7.30841 5.95259 7.45241 5.71259 7.52441 5.42459C7.62041 5.06459 7.66841 4.74859 7.66841 4.47659C7.66841 4.37259 7.66841 4.21659 7.66841 4.00859C7.67641 3.80059 7.68041 3.63259 7.68041 3.50459C7.68841 3.37659 7.68841 3.22459 7.68041 3.04859C7.67241 2.87259 7.66041 2.70859 7.64441 2.55659C7.63641 2.46859 7.63641 2.36859 7.64441 2.25659C7.67641 1.77659 7.67241 1.42459 7.63241 1.20059C7.62441 1.11259 7.62841 1.00859 7.64441 0.888593C7.67641 0.696594 7.78441 0.580594 7.96841 0.540594C8.15241 0.500594 8.32041 0.476593 8.47241 0.468593C8.64041 0.468593 9.05241 0.468593 9.70841 0.468593C9.75641 0.468593 9.80441 0.476593 9.85241 0.492594C9.98041 0.532593 10.0604 0.616593 10.0924 0.744593C10.1004 0.776593 10.1044 0.824593 10.1044 0.888593C10.1044 1.15259 10.1044 1.86059 10.1044 3.01259V3.10859H10.1164ZM11.7359 4.58459C11.7359 2.63259 11.7359 1.50059 11.7359 1.18859C11.7359 0.972593 11.7399 0.832593 11.7479 0.768594C11.7559 0.664593 11.8159 0.592593 11.9279 0.552593C12.0319 0.528593 12.0999 0.516593 12.1319 0.516593C12.5959 0.492594 13.0919 0.472594 13.6199 0.456593C13.7239 0.448593 13.8159 0.484593 13.8959 0.564593C14.0239 0.668593 14.1159 0.748593 14.1719 0.804593C14.9319 1.55659 15.8279 2.55259 16.8599 3.79259C17.2999 4.32059 17.7479 4.79659 18.2039 5.22059C18.2599 5.26859 18.3439 5.32459 18.4559 5.38859C18.4959 5.40459 18.5439 5.40059 18.5999 5.37659C18.6639 5.34459 18.6999 5.30859 18.7079 5.26859C18.7159 5.18059 18.7199 5.11259 18.7199 5.06459C18.7119 4.72059 18.6999 4.44459 18.6839 4.23659C18.6439 3.42859 18.6479 2.33259 18.6959 0.948593C18.7039 0.772593 18.7399 0.656593 18.8039 0.600594C18.8679 0.536593 18.9919 0.508593 19.1759 0.516593C19.2559 0.524593 19.4439 0.532593 19.7399 0.540594C20.0359 0.540594 20.2599 0.544594 20.4119 0.552593C20.5479 0.560593 20.6639 0.600593 20.7599 0.672593C20.8559 0.744593 20.9079 0.844593 20.9159 0.972593C20.9239 1.01259 20.9279 1.11659 20.9279 1.28459C20.9359 1.96459 20.9399 2.85659 20.9399 3.96059C20.9479 4.03259 20.9479 4.15259 20.9399 4.32059C20.9399 4.48059 20.9399 4.59659 20.9399 4.66859C20.9559 5.68459 20.9639 6.40459 20.9639 6.82859C20.9719 6.94059 20.9799 7.13659 20.9879 7.41659C20.9959 7.69659 20.9999 7.91259 20.9999 8.06459C20.9999 8.19259 20.9799 8.37659 20.9399 8.61659C20.9319 8.70459 20.8759 8.76059 20.7719 8.78459C20.7479 8.79259 20.7319 8.79659 20.7239 8.79659C19.9719 8.80459 19.4079 8.80859 19.0319 8.80859C18.9359 8.80859 18.8559 8.77659 18.7919 8.71259C18.6959 8.60059 18.6279 8.52459 18.5879 8.48459C18.0759 7.85259 17.4039 7.12459 16.5719 6.30059C15.7559 5.49259 15.1439 4.84459 14.7359 4.35659C14.6639 4.26859 14.5919 4.19259 14.5199 4.12859C14.4319 4.04859 14.3199 4.03259 14.1839 4.08059C14.1119 4.10459 14.0639 4.14459 14.0399 4.20059C13.9759 4.31259 13.9439 4.48059 13.9439 4.70459C13.9359 4.88859 13.9239 5.22859 13.9079 5.72459C13.8999 6.21259 13.8959 6.59259 13.8959 6.86459C13.8959 6.88859 13.8959 7.33259 13.8959 8.19659C13.8959 8.30059 13.8919 8.36859 13.8839 8.40059C13.8679 8.60859 13.7599 8.71659 13.5599 8.72459C13.1759 8.74059 12.7479 8.75659 12.2759 8.77259C12.1559 8.77259 12.0479 8.73259 11.9519 8.65259C11.8559 8.57259 11.8119 8.46459 11.8199 8.32859C11.8199 8.28059 11.8159 8.21659 11.8079 8.13659C11.8079 8.05659 11.8079 8.00059 11.8079 7.96859C11.7999 7.60059 11.7799 6.47259 11.7479 4.58459C11.7399 4.58459 11.7359 4.58459 11.7359 4.58459ZM22.8227 4.64459C22.7987 4.05259 22.7867 3.74459 22.7867 3.72059C22.7867 3.44859 22.7787 2.62859 22.7627 1.26059C22.7627 1.17259 22.7667 1.10459 22.7747 1.05659C22.8067 0.768593 22.9547 0.604593 23.2187 0.564593C23.4267 0.532593 23.6147 0.516593 23.7827 0.516593C25.5587 0.492594 26.6187 0.484594 26.9627 0.492594C27.7547 0.516593 28.5387 0.584593 29.3147 0.696593C30.0827 0.808593 30.7227 1.14859 31.2347 1.71659C31.2827 1.77259 31.3547 1.86059 31.4507 1.98059C31.5547 2.09259 31.6147 2.15659 31.6307 2.17259C32.1907 2.82059 32.4547 3.59659 32.4227 4.50059C32.3907 5.22859 32.2627 5.88059 32.0387 6.45659C31.9267 6.72059 31.8187 6.95259 31.7147 7.15259C31.5067 7.52059 31.2307 7.82059 30.8867 8.05259C30.2947 8.42859 29.6627 8.67659 28.9907 8.79659C28.8787 8.81259 28.7387 8.81259 28.5707 8.79659C28.2907 8.78059 27.9827 8.76859 27.6467 8.76059C27.3107 8.74459 27.0187 8.73659 26.7707 8.73659C26.5307 8.72859 26.2147 8.72459 25.8227 8.72459C25.4307 8.71659 25.1347 8.70859 24.9347 8.70059C24.8787 8.70059 24.5347 8.70459 23.9027 8.71259C23.8627 8.71259 23.7987 8.71659 23.7107 8.72459C23.6307 8.72459 23.5707 8.72459 23.5307 8.72459C23.4907 8.72459 23.4267 8.72459 23.3387 8.72459C23.0587 8.71659 22.8987 8.57259 22.8587 8.29259C22.8587 8.26859 22.8547 8.14859 22.8467 7.93259C22.8307 6.78059 22.8227 6.09659 22.8227 5.88059C22.8227 5.80859 22.8227 5.70859 22.8227 5.58059C22.8307 5.44459 22.8347 5.35259 22.8347 5.30459C22.8347 5.12859 22.8307 4.90859 22.8227 4.64459ZM25.0187 4.78859C25.0187 5.24459 25.0187 5.50059 25.0187 5.55659C25.0187 5.66859 25.0267 5.78859 25.0427 5.91659C25.0667 6.14859 25.1747 6.35659 25.3667 6.54059C25.5267 6.68459 25.7267 6.76059 25.9667 6.76859C26.3107 6.77659 26.8907 6.80459 27.7067 6.85259C27.9707 6.86859 28.3267 6.82459 28.7747 6.72059C29.0707 6.66459 29.3307 6.51259 29.5547 6.26459C29.9467 5.84859 30.1427 5.33659 30.1427 4.72859C30.1427 4.37659 30.0947 4.10859 29.9987 3.92459C29.7267 3.38059 29.3107 3.03259 28.7507 2.88059C28.4707 2.80059 28.1987 2.75659 27.9347 2.74859C27.8067 2.74859 27.6187 2.74459 27.3707 2.73659C27.1227 2.72859 26.9707 2.72459 26.9147 2.72459C26.7787 2.71659 26.6267 2.71259 26.4587 2.71259C25.9867 2.72059 25.5747 2.93259 25.2227 3.34859C25.0867 3.50859 25.0227 3.68059 25.0307 3.86459C25.0307 3.97659 25.0307 4.10459 25.0307 4.24859C25.0307 4.38459 25.0267 4.50859 25.0187 4.62059C25.0187 4.73259 25.0187 4.78859 25.0187 4.78859ZM41.5764 8.80859C41.4084 8.80859 41.2844 8.73259 41.2044 8.58059C41.0844 8.35659 40.9684 8.16859 40.8564 8.01659C40.7924 7.92059 40.6804 7.79259 40.5204 7.63259C40.2644 7.36859 39.9404 7.24859 39.5484 7.27259C39.3084 7.28859 38.8564 7.29659 38.1924 7.29659C37.5364 7.29659 37.0324 7.31259 36.6804 7.34459C36.5844 7.36059 36.5004 7.38459 36.4284 7.41659C36.1404 7.58459 35.9244 7.85259 35.7804 8.22059C35.6844 8.44459 35.6124 8.58859 35.5644 8.65259C35.5164 8.71659 35.4404 8.76059 35.3364 8.78459C35.2324 8.80059 35.0884 8.79659 34.9044 8.77259C34.7764 8.77259 34.5084 8.77659 34.1004 8.78459C33.6924 8.78459 33.4244 8.78059 33.2964 8.77259C33.2484 8.77259 33.2124 8.75259 33.1884 8.71259C33.1724 8.67259 33.1724 8.63259 33.1884 8.59259C33.2204 8.52859 33.2724 8.42459 33.3444 8.28059C33.4164 8.12859 33.4604 8.03659 33.4764 8.00459C33.5484 7.86059 33.6444 7.66459 33.7644 7.41659C33.8844 7.16859 33.9924 6.94059 34.0884 6.73259C34.1844 6.52459 34.2724 6.32859 34.3524 6.14459C34.5604 5.68059 34.8404 5.01659 35.1924 4.15259C35.4724 3.46459 35.9084 2.55659 36.5004 1.42859C36.5404 1.34859 36.6484 1.17259 36.8244 0.900593C36.8804 0.812593 36.9644 0.760593 37.0764 0.744593C37.2444 0.720593 37.3644 0.708594 37.4364 0.708594C37.9724 0.700593 38.5884 0.688593 39.2844 0.672593C39.3964 0.672593 39.5004 0.676593 39.5964 0.684593C39.7004 0.700593 39.7844 0.756593 39.8484 0.852593C39.9764 1.05259 40.0604 1.20059 40.1004 1.29659C40.1484 1.37659 40.3044 1.67659 40.5684 2.19659C40.8404 2.71659 41.0364 3.12059 41.1564 3.40859C41.1804 3.48059 41.2564 3.68059 41.3844 4.00859C41.5124 4.32859 41.6124 4.57259 41.6844 4.74059C42.0364 5.55659 42.3844 6.34059 42.7284 7.09259C42.7444 7.13259 42.9404 7.52859 43.3164 8.28059C43.3724 8.38459 43.4044 8.44859 43.4124 8.47259C43.5004 8.66459 43.4364 8.76459 43.2204 8.77259C42.2524 8.79659 41.7044 8.80859 41.5764 8.80859ZM39.0804 5.34059C39.2004 5.33259 39.2964 5.27259 39.3684 5.16059C39.4484 5.04859 39.4764 4.93259 39.4524 4.81259C39.4444 4.76459 39.4284 4.71659 39.4044 4.66859C39.2124 4.23659 38.9684 3.68859 38.6724 3.02459C38.6644 3.00859 38.6484 2.98059 38.6244 2.94059C38.5764 2.86859 38.5084 2.83259 38.4204 2.83259C38.3404 2.83259 38.2764 2.86459 38.2284 2.92859C38.1964 2.97659 38.1564 3.05259 38.1084 3.15659C38.0364 3.29259 37.8564 3.64059 37.5684 4.20059C37.4804 4.38459 37.4284 4.49259 37.4124 4.52459C37.3404 4.67659 37.3164 4.84459 37.3404 5.02859C37.3724 5.22059 37.4724 5.32059 37.6404 5.32859C38.2884 5.36059 38.7684 5.36459 39.0804 5.34059ZM49.729 4.64459C49.705 4.30859 49.693 3.95659 49.693 3.58859C49.693 3.21259 49.697 2.78859 49.705 2.31659C49.713 1.83659 49.717 1.48059 49.717 1.24859C49.717 1.08859 49.717 0.972593 49.717 0.900593C49.725 0.756593 49.745 0.664593 49.777 0.624593C49.817 0.576593 49.905 0.548594 50.041 0.540594C50.185 0.540594 50.417 0.536593 50.737 0.528593C51.057 0.520593 51.301 0.512593 51.469 0.504593C51.677 0.496593 51.845 0.564594 51.973 0.708594C51.997 0.732593 52.029 0.764593 52.069 0.804593C52.109 0.844593 52.137 0.872593 52.153 0.888593C52.321 1.06459 52.589 1.33659 52.957 1.70459C53.325 2.07259 53.645 2.40059 53.917 2.68859C54.189 2.96859 54.445 3.24459 54.685 3.51659C54.885 3.75659 55.077 3.89659 55.261 3.93659C55.501 3.99259 55.701 3.93659 55.861 3.76859C55.893 3.74459 55.929 3.70859 55.969 3.66059C56.233 3.34859 56.637 2.91259 57.181 2.35259C57.725 1.79259 58.037 1.46859 58.117 1.38059C58.181 1.30859 58.273 1.18859 58.393 1.02059C58.521 0.852593 58.613 0.736593 58.669 0.672593C58.789 0.544594 58.925 0.484594 59.077 0.492594C59.125 0.492594 59.193 0.492594 59.281 0.492594C59.377 0.484594 59.445 0.484594 59.485 0.492594C59.677 0.500593 60.073 0.520593 60.673 0.552593C60.713 0.560593 60.761 0.568593 60.817 0.576593C60.937 0.592593 61.005 0.660594 61.021 0.780593C61.037 0.932593 61.045 1.10459 61.045 1.29659C61.037 1.43259 61.025 1.71659 61.009 2.14859C60.993 2.57259 60.985 2.90059 60.985 3.13259C60.961 4.05259 60.953 4.87659 60.961 5.60459C60.961 5.88459 60.961 6.18459 60.961 6.50459C60.969 6.82459 60.973 7.18059 60.973 7.57259C60.981 7.95659 60.985 8.25659 60.985 8.47259C60.985 8.61659 60.921 8.70859 60.793 8.74859C60.705 8.77259 60.621 8.78859 60.541 8.79659C60.485 8.80459 60.401 8.80859 60.289 8.80859C59.817 8.80059 59.457 8.79259 59.209 8.78459C59.009 8.77659 58.893 8.67659 58.861 8.48459C58.829 8.26859 58.813 8.06059 58.813 7.86059C58.805 7.81259 58.801 7.67259 58.801 7.44059C58.809 7.20059 58.813 7.05259 58.813 6.99659C58.813 6.31659 58.809 5.87259 58.801 5.66459C58.793 5.05659 58.809 4.59259 58.849 4.27259C58.857 4.19259 58.857 4.10859 58.849 4.02059C58.833 3.94059 58.785 3.89659 58.705 3.88859C58.585 3.88859 58.505 3.90459 58.465 3.93659C58.313 4.03259 58.177 4.14059 58.057 4.26059C57.945 4.37259 57.781 4.54059 57.565 4.76459C57.349 4.98859 57.193 5.14859 57.097 5.24459C56.937 5.40459 56.713 5.61659 56.425 5.88059C56.265 6.03259 56.081 6.10859 55.873 6.10859C55.769 6.10859 55.629 6.11259 55.453 6.12059C55.277 6.12059 55.161 6.12059 55.105 6.12059C54.801 6.12859 54.553 6.03259 54.361 5.83259C54.321 5.78459 54.249 5.70859 54.145 5.60459C54.041 5.49259 53.957 5.40859 53.893 5.35259C53.365 4.80859 53.005 4.44059 52.813 4.24859C52.701 4.14459 52.581 4.05259 52.453 3.97259C52.365 3.92459 52.273 3.92459 52.177 3.97259C52.089 4.02059 52.041 4.09259 52.033 4.18859C52.025 4.26059 52.021 4.36459 52.021 4.50059C52.021 4.74059 52.017 5.14459 52.009 5.71259C52.009 6.28059 52.009 6.77259 52.009 7.18859C52.017 7.60459 52.029 8.00859 52.045 8.40059C52.053 8.43259 52.053 8.46859 52.045 8.50859C52.045 8.58059 52.021 8.64459 51.973 8.70059C51.925 8.74859 51.869 8.77659 51.805 8.78459C51.669 8.80859 51.565 8.81259 51.493 8.79659C51.045 8.72459 50.621 8.72059 50.221 8.78459C50.181 8.79259 50.113 8.78859 50.017 8.77259C49.865 8.75659 49.785 8.68059 49.777 8.54459C49.769 8.37659 49.765 8.20459 49.765 8.02859C49.757 7.60459 49.749 7.05259 49.741 6.37259C49.733 5.34059 49.729 4.80059 49.729 4.75259C49.729 4.72059 49.729 4.68459 49.729 4.64459ZM70.51 8.80859C70.342 8.80859 70.218 8.73259 70.138 8.58059C70.018 8.35659 69.902 8.16859 69.79 8.01659C69.726 7.92059 69.614 7.79259 69.454 7.63259C69.198 7.36859 68.874 7.24859 68.482 7.27259C68.242 7.28859 67.79 7.29659 67.126 7.29659C66.47 7.29659 65.966 7.31259 65.614 7.34459C65.518 7.36059 65.434 7.38459 65.362 7.41659C65.074 7.58459 64.858 7.85259 64.714 8.22059C64.618 8.44459 64.546 8.58859 64.498 8.65259C64.45 8.71659 64.374 8.76059 64.27 8.78459C64.166 8.80059 64.022 8.79659 63.838 8.77259C63.71 8.77259 63.442 8.77659 63.034 8.78459C62.626 8.78459 62.358 8.78059 62.23 8.77259C62.182 8.77259 62.146 8.75259 62.122 8.71259C62.106 8.67259 62.106 8.63259 62.122 8.59259C62.154 8.52859 62.206 8.42459 62.278 8.28059C62.35 8.12859 62.394 8.03659 62.41 8.00459C62.482 7.86059 62.578 7.66459 62.698 7.41659C62.818 7.16859 62.926 6.94059 63.022 6.73259C63.118 6.52459 63.206 6.32859 63.286 6.14459C63.494 5.68059 63.774 5.01659 64.126 4.15259C64.406 3.46459 64.842 2.55659 65.434 1.42859C65.474 1.34859 65.582 1.17259 65.758 0.900593C65.814 0.812593 65.898 0.760593 66.01 0.744593C66.178 0.720593 66.298 0.708594 66.37 0.708594C66.906 0.700593 67.522 0.688593 68.218 0.672593C68.33 0.672593 68.434 0.676593 68.53 0.684593C68.634 0.700593 68.718 0.756593 68.782 0.852593C68.91 1.05259 68.994 1.20059 69.034 1.29659C69.082 1.37659 69.238 1.67659 69.502 2.19659C69.774 2.71659 69.97 3.12059 70.09 3.40859C70.114 3.48059 70.19 3.68059 70.318 4.00859C70.446 4.32859 70.546 4.57259 70.618 4.74059C70.97 5.55659 71.318 6.34059 71.662 7.09259C71.678 7.13259 71.874 7.52859 72.25 8.28059C72.306 8.38459 72.338 8.44859 72.346 8.47259C72.434 8.66459 72.37 8.76459 72.154 8.77259C71.186 8.79659 70.638 8.80859 70.51 8.80859ZM68.014 5.34059C68.134 5.33259 68.23 5.27259 68.302 5.16059C68.382 5.04859 68.41 4.93259 68.386 4.81259C68.378 4.76459 68.362 4.71659 68.338 4.66859C68.146 4.23659 67.902 3.68859 67.606 3.02459C67.598 3.00859 67.582 2.98059 67.558 2.94059C67.51 2.86859 67.442 2.83259 67.354 2.83259C67.274 2.83259 67.21 2.86459 67.162 2.92859C67.13 2.97659 67.09 3.05259 67.042 3.15659C66.97 3.29259 66.79 3.64059 66.502 4.20059C66.414 4.38459 66.362 4.49259 66.346 4.52459C66.274 4.67659 66.25 4.84459 66.274 5.02859C66.306 5.22059 66.406 5.32059 66.574 5.32859C67.222 5.36059 67.702 5.36459 68.014 5.34059ZM77.514 9.02459C76.754 9.05659 76.006 8.90859 75.27 8.58059C74.574 8.26859 73.998 7.94859 73.542 7.62059C73.398 7.51659 73.246 7.38459 73.086 7.22459C73.038 7.17659 73.006 7.10059 72.99 6.99659C72.958 6.86859 72.994 6.76859 73.098 6.69659C73.298 6.55259 73.41 6.47259 73.434 6.45659C73.61 6.33659 73.902 6.13659 74.31 5.85659C74.454 5.76859 74.566 5.72459 74.646 5.72459C74.734 5.71659 74.838 5.76459 74.958 5.86859C75.286 6.14859 75.722 6.40059 76.266 6.62459C76.45 6.70459 76.674 6.78459 76.938 6.86459C77.226 6.95259 77.602 6.96059 78.066 6.88859C78.146 6.87259 78.27 6.82059 78.438 6.73259C78.622 6.64459 78.738 6.49259 78.786 6.27659C78.818 6.11659 78.778 5.97659 78.666 5.85659C78.554 5.72859 78.418 5.63259 78.258 5.56859C77.986 5.46459 77.762 5.38859 77.586 5.34059C77.05 5.18859 76.406 5.01259 75.654 4.81259C75.326 4.72459 74.938 4.52059 74.49 4.20059C74.41 4.13659 74.298 4.03659 74.154 3.90059C73.682 3.45259 73.53 2.88859 73.698 2.20859C73.738 2.00859 73.814 1.82859 73.926 1.66859C74.358 1.03659 74.906 0.604594 75.57 0.372594C76.058 0.196594 76.614 0.112593 77.238 0.120593C77.942 0.128593 78.558 0.236593 79.086 0.444593C79.99 0.812593 80.718 1.26859 81.27 1.81259C81.414 1.95659 81.482 2.07659 81.474 2.17259C81.466 2.26859 81.378 2.37659 81.21 2.49659C80.93 2.70459 80.602 2.94459 80.226 3.21659C79.914 3.43259 79.626 3.40459 79.362 3.13259C79.234 3.00459 78.982 2.80859 78.606 2.54459C78.374 2.38459 78.066 2.24459 77.682 2.12459C77.386 2.02859 77.102 2.04459 76.83 2.17259C76.606 2.27659 76.474 2.42859 76.434 2.62859C76.402 2.82859 76.478 3.01259 76.662 3.18059C76.886 3.39659 77.166 3.55259 77.502 3.64859C77.598 3.67259 77.862 3.73259 78.294 3.82859C78.862 3.94059 79.326 4.06059 79.686 4.18859C80.222 4.36459 80.694 4.67659 81.102 5.12459C81.19 5.21259 81.266 5.30459 81.33 5.40059C81.666 5.90459 81.706 6.44059 81.45 7.00859C81.346 7.24059 81.198 7.46059 81.006 7.66859C80.23 8.50859 79.238 8.95259 78.03 9.00059C77.998 9.00059 77.95 9.00059 77.886 9.00059C77.83 9.00859 77.79 9.01259 77.766 9.01259C77.758 9.01259 77.674 9.01659 77.514 9.02459ZM87.1 9.02459C86.34 9.05659 85.592 8.90859 84.856 8.58059C84.16 8.26859 83.584 7.94859 83.128 7.62059C82.984 7.51659 82.832 7.38459 82.672 7.22459C82.624 7.17659 82.592 7.10059 82.576 6.99659C82.544 6.86859 82.58 6.76859 82.684 6.69659C82.884 6.55259 82.996 6.47259 83.02 6.45659C83.196 6.33659 83.488 6.13659 83.896 5.85659C84.04 5.76859 84.152 5.72459 84.232 5.72459C84.32 5.71659 84.424 5.76459 84.544 5.86859C84.872 6.14859 85.308 6.40059 85.852 6.62459C86.036 6.70459 86.26 6.78459 86.524 6.86459C86.812 6.95259 87.188 6.96059 87.652 6.88859C87.732 6.87259 87.856 6.82059 88.024 6.73259C88.208 6.64459 88.324 6.49259 88.372 6.27659C88.404 6.11659 88.364 5.97659 88.252 5.85659C88.14 5.72859 88.004 5.63259 87.844 5.56859C87.572 5.46459 87.348 5.38859 87.172 5.34059C86.636 5.18859 85.992 5.01259 85.24 4.81259C84.912 4.72459 84.524 4.52059 84.076 4.20059C83.996 4.13659 83.884 4.03659 83.74 3.90059C83.268 3.45259 83.116 2.88859 83.284 2.20859C83.324 2.00859 83.4 1.82859 83.512 1.66859C83.944 1.03659 84.492 0.604594 85.156 0.372594C85.644 0.196594 86.2 0.112593 86.824 0.120593C87.528 0.128593 88.144 0.236593 88.672 0.444593C89.576 0.812593 90.304 1.26859 90.856 1.81259C91 1.95659 91.068 2.07659 91.06 2.17259C91.052 2.26859 90.964 2.37659 90.796 2.49659C90.516 2.70459 90.188 2.94459 89.812 3.21659C89.5 3.43259 89.212 3.40459 88.948 3.13259C88.82 3.00459 88.568 2.80859 88.192 2.54459C87.96 2.38459 87.652 2.24459 87.268 2.12459C86.972 2.02859 86.688 2.04459 86.416 2.17259C86.192 2.27659 86.06 2.42859 86.02 2.62859C85.988 2.82859 86.064 3.01259 86.248 3.18059C86.472 3.39659 86.752 3.55259 87.088 3.64859C87.184 3.67259 87.448 3.73259 87.88 3.82859C88.448 3.94059 88.912 4.06059 89.272 4.18859C89.808 4.36459 90.28 4.67659 90.688 5.12459C90.776 5.21259 90.852 5.30459 90.916 5.40059C91.252 5.90459 91.292 6.44059 91.036 7.00859C90.932 7.24059 90.784 7.46059 90.592 7.66859C89.816 8.50859 88.824 8.95259 87.616 9.00059C87.584 9.00059 87.536 9.00059 87.472 9.00059C87.416 9.00859 87.376 9.01259 87.352 9.01259C87.344 9.01259 87.26 9.01659 87.1 9.02459ZM100.346 8.80859C100.178 8.80859 100.054 8.73259 99.9739 8.58059C99.8539 8.35659 99.7379 8.16859 99.6259 8.01659C99.5619 7.92059 99.4499 7.79259 99.2899 7.63259C99.0339 7.36859 98.7099 7.24859 98.3179 7.27259C98.0779 7.28859 97.6259 7.29659 96.9619 7.29659C96.3059 7.29659 95.8019 7.31259 95.4499 7.34459C95.3539 7.36059 95.2699 7.38459 95.1979 7.41659C94.9099 7.58459 94.6939 7.85259 94.5499 8.22059C94.4539 8.44459 94.3819 8.58859 94.3339 8.65259C94.2859 8.71659 94.2099 8.76059 94.1059 8.78459C94.0019 8.80059 93.8579 8.79659 93.6739 8.77259C93.5459 8.77259 93.2779 8.77659 92.8699 8.78459C92.4619 8.78459 92.1939 8.78059 92.0659 8.77259C92.0179 8.77259 91.9819 8.75259 91.9579 8.71259C91.9419 8.67259 91.9419 8.63259 91.9579 8.59259C91.9899 8.52859 92.0419 8.42459 92.1139 8.28059C92.1859 8.12859 92.2299 8.03659 92.2459 8.00459C92.3179 7.86059 92.4139 7.66459 92.5339 7.41659C92.6539 7.16859 92.7619 6.94059 92.8579 6.73259C92.9539 6.52459 93.0419 6.32859 93.1219 6.14459C93.3299 5.68059 93.6099 5.01659 93.9619 4.15259C94.2419 3.46459 94.6779 2.55659 95.2699 1.42859C95.3099 1.34859 95.4179 1.17259 95.5939 0.900593C95.6499 0.812593 95.7339 0.760593 95.8459 0.744593C96.0139 0.720593 96.1339 0.708594 96.2059 0.708594C96.7419 0.700593 97.3579 0.688593 98.0539 0.672593C98.1659 0.672593 98.2699 0.676593 98.3659 0.684593C98.4699 0.700593 98.5539 0.756593 98.6179 0.852593C98.7459 1.05259 98.8299 1.20059 98.8699 1.29659C98.9179 1.37659 99.0739 1.67659 99.3379 2.19659C99.6099 2.71659 99.8059 3.12059 99.9259 3.40859C99.9499 3.48059 100.026 3.68059 100.154 4.00859C100.282 4.32859 100.382 4.57259 100.454 4.74059C100.806 5.55659 101.154 6.34059 101.498 7.09259C101.514 7.13259 101.71 7.52859 102.086 8.28059C102.142 8.38459 102.174 8.44859 102.182 8.47259C102.27 8.66459 102.206 8.76459 101.99 8.77259C101.022 8.79659 100.474 8.80859 100.346 8.80859ZM97.8499 5.34059C97.9699 5.33259 98.0659 5.27259 98.1379 5.16059C98.2179 5.04859 98.2459 4.93259 98.2219 4.81259C98.2139 4.76459 98.1979 4.71659 98.1739 4.66859C97.9819 4.23659 97.7379 3.68859 97.4419 3.02459C97.4339 3.00859 97.4179 2.98059 97.3939 2.94059C97.3459 2.86859 97.2779 2.83259 97.1899 2.83259C97.1099 2.83259 97.0459 2.86459 96.9979 2.92859C96.9659 2.97659 96.9259 3.05259 96.8779 3.15659C96.8059 3.29259 96.6259 3.64059 96.3379 4.20059C96.2499 4.38459 96.1979 4.49259 96.1819 4.52459C96.1099 4.67659 96.0859 4.84459 96.1099 5.02859C96.1419 5.22059 96.2419 5.32059 96.4099 5.32859C97.0579 5.36059 97.5379 5.36459 97.8499 5.34059ZM110.962 4.02059C111.586 4.04459 111.93 4.05659 111.994 4.05659C112.154 4.06459 112.242 4.14859 112.258 4.30859C112.274 4.46859 112.278 4.64059 112.27 4.82459C112.27 4.91259 112.266 5.06859 112.258 5.29259C112.25 5.50859 112.246 5.67659 112.246 5.79659C112.246 5.84459 112.258 6.10059 112.282 6.56459C112.282 6.57259 112.286 6.62459 112.294 6.72059C112.302 6.80859 112.306 6.87659 112.306 6.92459C112.298 7.38859 112.282 7.90059 112.258 8.46059C112.258 8.63659 112.178 8.72859 112.018 8.73659C111.994 8.74459 111.906 8.74859 111.754 8.74859C111.61 8.74059 111.526 8.73659 111.502 8.73659C110.99 8.73659 110.682 8.73659 110.578 8.73659C110.386 8.74459 110.262 8.68459 110.206 8.55659C110.174 8.48459 110.098 8.46059 109.978 8.48459C109.906 8.49259 109.798 8.51659 109.654 8.55659C109.51 8.58859 109.402 8.60859 109.33 8.61659C108.81 8.72059 108.522 8.77659 108.466 8.78459C107.57 8.88059 106.554 8.70459 105.418 8.25659C104.986 8.08859 104.594 7.81659 104.242 7.44059C103.746 6.92059 103.402 6.41659 103.21 5.92859C103.002 5.37659 102.918 4.84059 102.958 4.32059C103.014 3.43259 103.262 2.67659 103.702 2.05259C103.91 1.74859 104.158 1.49259 104.446 1.28459C105.078 0.836593 105.674 0.504593 106.234 0.288593C106.65 0.120594 107.098 0.0325935 107.578 0.0245931C108.282 0.00859332 108.99 0.112593 109.702 0.336593C110.398 0.552593 111.038 0.932594 111.622 1.47659C111.726 1.57259 111.83 1.68859 111.934 1.82459C112.086 2.04059 112.066 2.22459 111.874 2.37659C111.514 2.66459 111.134 2.95659 110.734 3.25259C110.542 3.39659 110.354 3.38459 110.17 3.21659C110.138 3.20059 110.058 3.13259 109.93 3.01259C109.802 2.89259 109.702 2.80459 109.63 2.74859C109.094 2.35659 108.502 2.17659 107.854 2.20859C107.574 2.21659 107.278 2.30059 106.966 2.46059C106.454 2.72459 106.054 3.11259 105.766 3.62459C105.63 3.87259 105.574 4.18859 105.598 4.57259C105.63 5.02859 105.798 5.47259 106.102 5.90459C106.302 6.17659 106.574 6.38059 106.918 6.51659C107.79 6.84459 108.662 6.77259 109.534 6.30059C109.574 6.28459 109.594 6.26059 109.594 6.22859C109.594 6.19659 109.574 6.16859 109.534 6.14459C109.406 6.08859 109.346 5.99659 109.354 5.86859C109.37 5.75659 109.406 5.24459 109.462 4.33259C109.462 4.31659 109.466 4.30059 109.474 4.28459C109.49 4.14059 109.562 4.05659 109.69 4.03259C109.962 3.98459 110.182 3.96859 110.35 3.98459C110.382 3.98459 110.586 3.99659 110.962 4.02059ZM118.135 8.80859C116.175 8.80059 115.063 8.79659 114.799 8.79659C114.647 8.78859 114.527 8.77659 114.439 8.76059C114.263 8.72859 114.151 8.63259 114.103 8.47259C114.063 8.31259 114.043 8.16059 114.043 8.01659C114.011 7.44059 113.975 6.58459 113.935 5.44859C113.927 5.32859 113.927 5.20859 113.935 5.08859C114.031 4.08859 114.027 2.85659 113.923 1.39259C113.907 1.18459 113.903 1.01259 113.911 0.876594C113.919 0.732594 113.999 0.632593 114.151 0.576593C114.223 0.544593 114.307 0.524593 114.403 0.516593C114.611 0.492594 114.779 0.476593 114.907 0.468593C115.891 0.436593 116.987 0.400593 118.195 0.360593C118.803 0.336593 119.215 0.324594 119.431 0.324594C119.935 0.324594 120.639 0.332593 121.543 0.348593C121.727 0.348593 121.827 0.440593 121.843 0.624593C121.851 0.856593 121.855 1.06059 121.855 1.23659C121.847 1.41259 121.831 1.63659 121.807 1.90859C121.799 2.03659 121.723 2.10859 121.579 2.12459C121.547 2.12459 121.511 2.12459 121.471 2.12459C120.391 2.19659 119.383 2.22459 118.447 2.20859C118.279 2.20859 118.011 2.21259 117.643 2.22059C117.283 2.22059 117.019 2.21659 116.851 2.20859C116.635 2.20859 116.427 2.31259 116.227 2.52059C116.179 2.57659 116.143 2.65259 116.119 2.74859C116.087 2.91659 116.127 3.08459 116.239 3.25259C116.359 3.42059 116.507 3.52059 116.683 3.55259C116.771 3.56859 116.891 3.58059 117.043 3.58859C117.843 3.62859 118.699 3.63659 119.611 3.61259C119.747 3.61259 119.951 3.62059 120.223 3.63659C120.303 3.64459 120.351 3.68859 120.367 3.76859C120.375 3.84859 120.383 3.93259 120.391 4.02059C120.399 4.15659 120.415 4.56859 120.439 5.25659C120.439 5.25659 120.439 5.27259 120.439 5.30459C120.439 5.41659 120.419 5.49259 120.379 5.53259C120.347 5.57259 120.283 5.59659 120.187 5.60459C120.083 5.60459 119.807 5.60859 119.359 5.61659C119.159 5.61659 118.787 5.62059 118.243 5.62859C117.707 5.63659 117.291 5.64059 116.995 5.64059C116.987 5.64059 116.903 5.64459 116.743 5.65259C116.535 5.66059 116.363 5.75659 116.227 5.94059C116.067 6.15659 116.039 6.36859 116.143 6.57659C116.271 6.84059 116.455 6.96859 116.695 6.96059C116.863 6.96059 117.099 6.96059 117.403 6.96059C117.707 6.95259 117.915 6.94859 118.027 6.94859C118.283 6.94859 119.399 6.94059 121.375 6.92459C121.383 6.92459 121.403 6.92459 121.435 6.92459C121.475 6.92459 121.507 6.92459 121.531 6.92459C121.667 6.92459 121.759 6.94859 121.807 6.99659C121.863 7.04459 121.895 7.14059 121.903 7.28459C121.919 7.38859 121.935 7.56459 121.951 7.81259C121.975 8.05259 121.995 8.23659 122.011 8.36459C122.027 8.51659 122.015 8.61259 121.975 8.65259C121.943 8.69259 121.847 8.71659 121.687 8.72459C121.367 8.73259 120.183 8.75659 118.135 8.79659C118.135 8.79659 118.135 8.80059 118.135 8.80859Z" fill="#f5f5f0"/>
</svg>
