<?xml version="1.0" encoding="UTF-8"?>
<svg id="Calque_2" data-name="Calque 2" xmlns="http://www.w3.org/2000/svg" viewBox="0 0 726.31 214.07">
  <defs>
    <style>
      .cls-1 {
        fill: #1e1e1e;
      }
    </style>
  </defs>
  <g id="Calque_1-2" data-name="Calque 1">
    <path class="cls-1" d="M234.33,32.54c7.42,8.32,26.72,49.97,19.63,59.95l-15.34,5.2c-10.23-22.55-41.54-26.18-56.27-5.24-30.78,43.76,44.06,94.97,53.47,86.74C245.37,106.22,302.71,0,386.59,0c43.34,0,114.63,47.5,104.71,97.41-7.86,8.48-37.03-31.56-66.79-8.02-36.87,29.16,8.3,81.43,38.76,94.76,29.35-53.35,33.14-117.93,86.85-158.2,65.67-49.25,175.21-18.08,176.2,71.49-19.98,5.69-18-6.57-26.79-11.66-20.07-11.6-29.08-9.07-48.44,2.75-24.38,56.02,35.37,76.35,59.91,113.57-23.14,21.37-50.15,7.64-73.85,7.52-104.85-.52-209.39.65-311.96.38-105.08-.27-210.66,2.21-315.59-1.22-23.26-6.49,2.26-72.37,9.22-90.84C47.26,42.41,115.11-24.47,201.36,11.88c5.07,2.14,30.18,17.53,32.97,20.66Z"/>
  </g>
</svg>