<?xml version="1.0" encoding="UTF-8"?>
<svg id="Calque_2" data-name="Calque 2" xmlns="http://www.w3.org/2000/svg" viewBox="0 0 676.18 531.78">
  <defs>
    <style>
      .cls-1 {
        fill: #1e1e1e;
      }
    </style>
  </defs>
  <g id="Calque_1-2" data-name="Calque 1">
    <path class="cls-1" d="M333.39.02c6.21,86.33,31.51,176.69,61.15,258.17,16.56,45.52,35.33,94.9,69.12,130.09,11.23-7.97,4.82-8.73,2.36-17.62-20.43-73.84-45.97-159.87-55.68-235.55-2.99-23.28-8.08-70.08-5.68-91.89,4.86-44.09,94.36-16.34,96.85-4.34l-19.65,112.19c-2.41,53.92-7.27,103.49,0,157.74,3.34,24.95,11.38,49.52,15.03,74.39l9.87-28.41c1.91-99.33,21.82-197.45,46.32-293.44,8.75-2.12,10.17,3.36,15.32,7.65,29.78,24.79,45.25,63.52,41.04,102.4-3.08,28.49-44.79,92.43-56.56,127.34-8.33,24.71-12.23,48.02-10.03,74.25,12.99,2.34,9.01-2.17,12.54-10.2,22.17-50.48,47.74-103.98,87.13-143.02,10.37-2.34,6.13,3.18,8.62,6.53,17.91,24.13,36.13,51.49,16.67,80.08-27.11,39.83-91.13,74.47-111.93,112.87-11.39,21.03-8.47,56.91-25.89,76.29-12.42,13.82-62.68,27.21-81.96,30.44-124.13,20.76-251.86-14.49-347.13-96.75-22.38-19.33-72.92-67.15-89.44-89.37-11.7-15.74-17.42-43.2-2.5-58.76l64.1,73.8c71.93,61.34,157.83,122.77,255.21,130.5,2.71-14.88-4.02-8.06-11.43-11.31-104.25-45.87-174.55-89.99-251.93-172.47-13.17-14.03-32.44-33.09-42.42-49.41-29.44-48.18-10.7-45.08,9.26-85.52l12.49-2.68,92.32,106.96c55.39,44.51,105.94,103.28,167.75,138.79,13.47,7.74,51.73,28.36,64.6,32.47,7.05,2.25,13.3,3.14,20.66,2.31l-7.51-20.57c-63.96-38.74-127.16-88.86-179.09-142.78-37.5-38.93-71.74-86.93-104.58-130.43-11.76-15.58-37.33-27.17-18.06-48.71,10.76-12.02,71.47-43.05,84.8-33.36,34.14,72.46,72.4,147.57,120.04,212.04,35.42,47.94,73.77,84.49,117.18,122.94,5.73,5.07,8.45,12.23,17.88,10.2,1.35-10.66-.72-18.13-5.79-27.39-15.11-27.59-46.31-60.62-64.85-88.42-34.81-52.19-73.16-116.88-95.4-175.38-7.2-18.93-21.52-61.08-22.99-79.64-1.37-17.24,17.38-24.96,30.71-30.18C283.79,4.27,310.07-.32,333.39.02ZM500.99,489.5c31.51-64.65-72.69-64.07-80.6-11.66-1.32,8.74-2.46,30.17,7.92,32.91l72.68-21.26Z"/>
  </g>
</svg>