<?xml version="1.0" encoding="UTF-8"?>
<svg id="Calque_2" data-name="Calque 2" xmlns="http://www.w3.org/2000/svg" viewBox="0 0 800.13 673.67">
  <defs>
    <style>
      .cls-1 {
        fill: #1e1e1e;
      }
    </style>
  </defs>
  <g id="Calque_1-2" data-name="Calque 1">
    <path class="cls-1" d="M583.2,273.9c10.55,6.57,18.38,4.44,27.41-3.98,17.19-16.03,25.45-52.32,43.21-74.27,32.18-39.77,99.86-67.18,135.18-17.66,36.59,51.31-25.26,126.52-66.12,158.24-58.07,45.07-120.62,50.01-181.51,79.04-8.35,3.98-14.52,8.09-20.32,15.4,6.47,9.64,13.28,7.36,22.88,7.78,52.94,2.27,155.2-50.77,188.86,5.2,14.21,23.63,1.6,42.93-17.52,58.67-101.85,83.87-243.4-20.07-357.75,7.56-1.87,8.9,2.45,10.23,8.39,14.58,31.75,23.26,111.09,17.4,122.23,51.54,12.35,37.86-44.59,60.73-75.89,55.36-65.38-11.23-109.9-93.56-184.2-74.71-26.07,13.52-9.21,42.42-8.13,63.07,1.15,21.9-15.79,50.17-38.91,53.69-55.85,6.07-63.17-94.81-87.41-101.68-23.77-6.73-102.98,53.97-92.66-7.16,8.94-52.9,58.36-34.57,80.04-73.24,11.87-21.16,22.53-98.06,39.78-109.38,32.84-21.55,41.63,34.77,53.61,53.06,9.67,14.77,26,29.35,39.63,10.49.19-16.47-3.35-33.09-5.98-49.25-13.1-80.58-49.05-156.39,2.1-235.58,32.47-50.28,91.51-45.99,96.52,19.45,4.75,62.02-8.5,140.15-.07,199.32,6.99,49.06,38.92,12.93,44.76-21.37,4.57-26.86,1.89-62.21,6.27-90.79.62-4.03,9.66-26.62,10.87-27.47,1.11-.78,24.45-5.04,26.64-4.82,41.02,4.11,38.11,78.55,44.15,106.28l19.55-6.02c.78-13.48,10.5-30.8,11.04-42.94.6-13.55-8.97-35.22-10.3-50.53-4.1-47.11,8.73-168.85,30.65-209.76,25.05-46.74,71.77-40.74,89.59,7.77,5.17,14.06,11.12,44.18,12.39,59.11,3.03,35.74-27.23,156.58-8.97,175Z"/>
  </g>
</svg>