<?xml version="1.0" encoding="UTF-8"?>
<svg id="Calque_2" data-name="Calque 2" xmlns="http://www.w3.org/2000/svg" viewBox="0 0 666.39 642.71">
  <defs>
    <style>
      .cls-1 {
        fill: #1e1e1e;
      }
    </style>
  </defs>
  <g id="Calque_1-2" data-name="Calque 1">
    <path class="cls-1" d="M666.22,285.25c-.63,4.29-3.23,7.28-6.61,8.89-4.33,2.09-8.26,5.43-12.48,7.79-13.51,7.59-27.95,12.93-41.28,20.96-3.21,1.96-6.38,4.05-9.39,6.37-1,.74-1.96,1.95-3.21,1.96-1.53.06-2.86-.27-4.4.25-1.08.34-2.06.47-3.11.75-.93.23-1.67.47-2.55,1.01-.94.6-2.33,1.33-3.07,2.22-.37.46-.45,1.03-.76,1.5-.31.46-.72.7-1.01,1.2-.46.82-1.03,2.02-1.13,2.96-.11.69-.35,1.53.23,1.88.82.5,1.96.04,2.86.27,1.33.35,2.68,1.38,3.94,2,2.9,1.49,5.8,2.89,8.71,4.29,2.85,1.33,5.71,2.61,8.6,3.86,2.78,1.21,5.96,2.05,8.6,3.55,10.91,6.15,26.93,16.18,37.46,22.3,16.99,7.69-1.87,22.35-11.33,24.75-17.92,6.22-35.16-1.44-53.35-.68-2.11.07-5.74.72-6.61,2.87-1.3,4.38,3.47,7.65,6.26,10.47,17.17,12.59,50.71,43.03,24.07,64.99-8.67,6.95-16.49-.32-23.56-6.37-13-9.41-27.17-20.96-41.41-26.39-17.07-6.08-19.48-1.36-9.37,17.52,3.21,7.11,4.86,15.03,6.89,22.62,5.76,19.81,18.04,47.3,16.16,68.74-.43,7.23-5.5,17.59-12.36,14.4-5.13-2.62-9.32-11.7-13.61-17.4-4.63-7.32-12.34-11.34-17.96-16.48-4.32-3.72-26.7-30.06-30.46-19.37-3.37,30.38,16.16,63.73,4.96,92.58-3.88,7.68-13.41,10.99-19.4,6.03-10.81-11.67-14.73-35.79-25.51-46.76-2.44-2.65-7.45-2.45-9.2-4.06-5.91-5.93-9.42-14.46-13.78-23.07-1.33-2.31-3.35-6.11-5.51-3.48-2.47,3.7-5.78,12.32-9.01,16.82-12.62,18.59-15.96,44.25-13.58,67.41.75,7.09-2.19,15.49-9.02,11.2-3.89-2.27-6.89-6.46-10.26-9.67-5.17-5.47-11.88-8.55-15.98-14.85-6.42-12.87-10.52-26.61-12.11-41.31-2.1-9.49-8.51-22.08-14.67-8.27-10.92,20.51-21.63,37.46-32.32,59.51-4.46,9.68-19.72,36.06-22.29,11.51-.9-37.7-5.34-76.58-.32-114.64.09-2.74.86-8.05-1.99-7.74-30.78,21.68-44.29,62.13-66.59,94.85-2.39,3.41-5.21,7.36-8.21,9.52-16.27,8.37.36-29.17.5-36.55,4.36-26.3,3.14-58.5,1.72-85.95.05-11.36-6.1-8.38-11.71-3.23-18.86,17.35-31.17,42.23-45.27,64.92-3.7,5.59-7.77,12.83-13.22,15.77-6.07,2.74-7.93-6.31-8.17-11.85-.53-34.19,19.37-64.7,25.43-97.83,2.13-9.96,5.47-22.3,6.75-31.75.19-2.61-.31-4.33-1.81-4.91-6.28-.79-14.31,5.2-20.61,7.31-1.08.36-2.13.87-3.2,1.3-13.6,5.46-27.45,10.19-40.67,16.78-6.65,3.32-13.03,7.14-19.12,11.57-4.39,3.2-11.6,6.98-16.89,6.34-1.98-.24-4.51-.66-5.96-2.42-1.6-1.93-.53-3.66.31-5.87,1.88-4.98,4.81-8.89,7.47-13.33.8-1.34,1.1-2.91,1.92-4.22.94-1.51,2.23-2.84,3.28-4.28,1.97-2.69,4.05-5.29,6.29-7.72,1.13-1.23,2.65-2.15,3.59-3.58.37-.57.56-1.59.92-2.05,2.1-2.62,5.75-4.04,8.07-6.63,9.29-13.13,20.04-26.59,31.85-36.37,18.29-14.13,6.24-13.2-6.85-12.72-23.16-.75-44.54-10.03-66.95-2.47-9.87,2.7-19.38,12.57-29.47,11.89-3.88-.66-5.63-4.04-3.49-8.08,2.05-4.05,6.27-7.18,9.98-9.71,10.27-6.91,19.04-12.81,27.74-18.11,8.96-5.46,18.8-9.23,28.11-13.83,4.83-2.41,9.61-4.92,14.25-7.77,4.23-2.61,7.95-6.64,12.56-8.12,2.34-.78,4.84-1.92,7.23-2.37,2.82-.56,19.93-2.38,19.74-6.19-2.7-.59-5.09-2.07-7.59-2.73-4.23-1.14-8.16-3.24-12.27-4.77-2.07-.75-4.16-1.26-6.35-1.62-1.97-.35-3.48-1.11-5.38-1.97-4.33-1.98-9.18-3.32-13.33-5.65-10.91-6.12-26.93-16.15-37.46-22.27-16.99-7.69,1.88-22.38,11.33-24.78,17.92-6.22,35.16,1.47,53.35.68,2.14-.07,5.74-.69,6.61-2.87,1.3-4.35-3.47-7.62-6.26-10.47-17.17-12.56-50.71-43-24.07-64.99,8.66-6.92,16.49.35,23.56,6.37,12.99,9.44,27.17,21,41.41,26.42,17.07,6.05,19.48,1.36,9.37-17.52-3.21-7.11-4.85-15.06-6.89-22.62-5.76-19.84-18.04-47.33-16.16-68.74.43-7.23,5.5-17.59,12.36-14.43,5.13,2.62,9.32,11.7,13.61,17.43,4.66,7.32,12.34,11.34,17.96,16.48,4.32,3.72,26.7,30.03,30.49,19.38,3.34-30.42-16.19-63.73-4.99-92.58,3.88-7.71,13.44-11.01,19.43-6.06,10.78,11.7,14.7,35.82,25.49,46.75,2.44,2.65,7.47,2.48,9.22,4.09,5.89,5.92,9.4,14.43,13.76,23.03,1.33,2.31,3.34,6.14,5.51,3.48,2.47-3.7,5.81-12.29,9.01-16.82,12.62-18.59,15.96-44.22,13.57-67.38-.72-7.11,2.2-15.52,9.02-11.2,3.89,2.24,6.89,6.46,10.26,9.67,5.2,5.47,11.88,8.52,15.99,14.82,6.42,12.9,10.52,26.64,12.11,41.34,2.13,9.46,8.52,22.05,14.67,8.24,10.92-20.51,21.63-37.46,32.32-59.51,4.46-9.68,19.74-36.06,22.29-11.51.93,37.73,5.34,76.61.32,114.64-.09,2.74-.86,8.05,1.99,7.74,30.78-21.65,44.29-62.13,66.58-94.83,2.39-3.44,5.21-7.36,8.22-9.55,16.27-8.37-.33,29.17-.5,36.55-4.36,26.33-3.14,58.53-1.69,85.95-.08,11.35,6.07,8.38,11.68,3.25,18.86-17.35,31.18-42.26,45.27-64.92,3.73-5.62,7.77-12.86,13.22-15.77,6.1-2.76,7.96,6.28,8.17,11.85.53,34.16-19.37,64.7-25.43,97.8-2.13,9.99-5.47,22.3-6.73,31.79-.21,2.58.28,4.33,1.79,4.88,6.31.83,14.31-5.17,20.64-7.27,9.18-3.06,18.73-9.33,28.17-10.2,3.21-.29,6.11-.5,9.2-1.62,6.06-2.19,11.45-6.14,16.83-9.82,8.81-6.02,16.38-13.06,26.07-17.33,1.41-.62,3.41-2.07,5.2-.95,2.11,1.34,1.38,4.45.75,7.09-2.95,11.94-15.62,17.28-20.28,28.16-.82,1.92-3.74,5.74-2.7,7.26.82,1.44,4.11.89,2.86,1.95-3.46,2.92-8.34,5.36-12.1,9.54-9.31,13.13-20.07,26.59-31.88,36.37-18.3,14.16-6.24,13.2,6.85,12.72,10.25.36,20.34,2.41,30.47,3.92,4.49.68,8.87,1.31,13.34.86,4.33-.47,9.1.6,13.42.96,2.7.22,5.4.45,8.09.7,3.05.28,5.92-.55,8.95-.36,1.68.11,4.34-.19,5.89.46.48.22.8.43,1,.66.43.56.28,1.28.12,2.61Z"/>
  </g>
</svg>