<?xml version="1.0" encoding="UTF-8"?>
<svg id="Calque_2" data-name="Calque 2" xmlns="http://www.w3.org/2000/svg" viewBox="0 0 299.58 241.35">
  <defs>
    <style>
      .cls-1 {
        fill: #1e1e1e;
      }
    </style>
  </defs>
  <g id="Calque_1-2" data-name="Calque 1">
    <path class="cls-1" d="M266.97,29.17c16.57,16.39,35.05,55.79,32.35,80-10.22,10.5-50.04-53.6-86.91-12.87-26.21,28.96,4.65,73.66,28.35,94.47,8.77,7.71,44.08,27.82,45.99,30.65,4.01,5.95,2.9,9.61-2.56,13.1-16.81,10.73-91.11-5.72-115.77,6.82-37.36.06-74.48-4.33-111.96-4.64-19.09-.16-37.12,12.04-56.44-4.73C16.59,112.54,92.76-47.33,239.43,13.27c7.97,3.29,21.7,10.13,27.54,15.91Z"/>
  </g>
</svg>