<?xml version="1.0" encoding="UTF-8"?>
<svg id="Calque_2" data-name="Calque 2" xmlns="http://www.w3.org/2000/svg" viewBox="0 0 584.64 559.65">
  <defs>
    <style>
      .cls-1 {
        fill: #1e1e1e;
      }
    </style>
  </defs>
  <g id="Calque_1-2" data-name="Calque 1">
    <path class="cls-1" d="M341.86,25.83l9.11,34.59-5.87,9.86c-21.96,1.35-43.79,3.74-65.69,5.83-35.96,3.43-68.05,2.01-102.63,4.66-39.09,2.99-80.98,17.96-97,56.29-25.61,61.28-18.93,127.04-6.32,190.4,7.17,36.03,15.5,90.88,54.63,103.77,9.73,3.21,41.73,6.83,53.73,7.57,62.98,3.85,167.54-3.03,229.2-16.5,6.96-1.52,31.27-14.5,36.49-19.71,29.31-29.28,10.64-77.59.31-112.27-11.43-38.37-28.14-101.8-72.57-111.36-25.38-5.46-54.88-4.44-80.48-6.37-6.3-.48-12.89-4.41-20.59-4.95-49.38-3.45-70.39,7.03-74.45,58.7-1.76,22.36-1.46,82.65,17.86,94.96,25.27,16.1,93.53-7.57,115.14-28.34-20.32-21.04-54.01-16.29-56.63-51.06l10.62-20.54c31.23-7.09,108.63,5.46,116.63,41.9,7.41,33.81.95,68.52-29.98,85.64-16.14,8.94-52.68,21.5-71.04,26.01-47.43,11.66-148.81,21.47-171.49-33.29-18.59-44.89-14.28-117.77.05-163.69,10.15-32.51,24.68-46.15,57.56-54.83,88.79-23.45,187.05-20.95,273.43,10.09,28.64,10.29,69.73,29.93,87.8,55.25,31.5,44.16,38.39,138.05,33.56,191.51-7.42,82.1-96.6,132.34-167.55,154.32-88.57,27.44-214.27,32.2-304.86,16.38-50.63-8.84-85.94-46.22-98.65-95.49C-11.86,361.88,3.08,204.11,27.52,110.32c11.45-43.95,44.15-76.88,85.57-93.24,56.72-22.41,149.22-22.3,206.72-2.4,8.12,2.81,14.45,7.59,22.05,11.16Z"/>
  </g>
</svg>