<?xml version="1.0" encoding="UTF-8"?>
<svg id="Calque_2" data-name="Calque 2" xmlns="http://www.w3.org/2000/svg" viewBox="0 0 613.09 722.15">
  <defs>
    <style>
      .cls-1 {
        fill: #1e1e1e;
      }
    </style>
  </defs>
  <g id="Calque_1-2" data-name="Calque 1">
    <path class="cls-1" d="M586.18,470.04c-3.33,3.55-21.75,16.98-27.47,21.06-46.59,33.34-115.19,42.87-108.81,115.37.57,6.52,5.2,12.26,4.79,20.35-.29,5.74-4.48,29.3-6.07,35.18-8.73,32.24-30.3,43.22-62.62,39.05-24.34-3.14-52.19-24.93-72.71-29.41-51.64-11.28-88.69,50.53-137.01,50.51-73.14-.03-21.23-60.85-49.28-104.36-31.59-48.98-137.74-67.67-120.88-142.88,10.27-45.81,62.33-34.5,92.89-18.17,36.63,19.57,39.25,48.38,57.35,80.61,8.74,15.57,32.54,48.71,50.57,51.62,10.52,1.69,6.82-1,7.51-7.76,3.97-38.9,9.01-46.38-6.07-85.66-14.22-37.04-39.81-69.18-73.69-89.8-50.32-30.63-151.24-32.5-132.33-118.52,5.67-25.8,14.5-28.05,31.98-42.32,1.65-1.35,1.37-5.96,2.79-6.95,6.52-4.54,29.75-15.71,37.14-16.76,39.41-5.63,60.4,22.48,86.63,45.06,55.84-26.32,12.57-91.84,17.78-139.9,4.39-40.53,48.48-67.34,87.27-56.2,63.76,18.3,59.36,110.89,36.6,159.64-7.09,15.18-22.47,31.75-29.23,47.41-22.58,52.3-8.38,74.36,10.21,122.76,3.11,8.1,9.8,13.96,13.11,22.65,21.64,56.82-1.57,111.4-10.49,168.78,3.98,4.66,3.8,6.08,10.28,5.4,35.63-3.73,70.35-54.77,81.88-86.9,8.39-23.38,14.27-56.53,9.08-80.96-7.78-36.65-46.77-55.77-38.79-102.06,13.72-79.61,91.76-66.71,99.79,5.3l8.92,77.86c61.79-34.9,63.43-118.32,33.39-176.37-15.31-29.57-43.99-47.42-58.52-74.31-18.75-34.7-22.01-66.22-6.86-103.14,3.52-8.58,19.47-33.08,25.71-37.88,32.6-25.02,77.5-26.65,103.16,8.79,41.96,57.97-.23,123.03,8.11,186.03,3.94,29.78,24.01,64.66,33.05,94.67,7.9,26.21,15.88,63.36,17.77,89.9.28,3.94-4.69,34.68-6.05,39.48-.57,2.01-18.65,30.46-20.85,32.8Z"/>
  </g>
</svg>